G04*
G04 #@! TF.GenerationSoftware,Altium Limited,Altium Designer,23.0.1 (38)*
G04*
G04 Layer_Color=8388736*
%FSLAX25Y25*%
%MOIN*%
G70*
G04*
G04 #@! TF.SameCoordinates,7FA53B3A-F1D1-4194-8ECC-15494960791F*
G04*
G04*
G04 #@! TF.FilePolarity,Negative*
G04*
G01*
G75*
%ADD19R,0.06312X0.06706*%
%ADD20R,0.05800X0.18123*%
%ADD21O,0.05800X0.18123*%
%ADD22R,0.06706X0.06312*%
%ADD23R,0.06706X0.06706*%
%ADD24C,0.06706*%
%ADD25R,0.06706X0.06706*%
%ADD26C,0.02800*%
%ADD27C,0.12611*%
D19*
X299000Y265500D02*
D03*
X291126D02*
D03*
D20*
X216500Y280500D02*
D03*
D21*
X226500D02*
D03*
X236500D02*
D03*
X246500D02*
D03*
X256500D02*
D03*
X266500D02*
D03*
X276500D02*
D03*
Y349000D02*
D03*
X266500D02*
D03*
X256500D02*
D03*
X246500D02*
D03*
X236500D02*
D03*
X226500D02*
D03*
X216500D02*
D03*
D22*
Y381000D02*
D03*
Y388874D02*
D03*
D23*
X318000Y337000D02*
D03*
Y324000D02*
D03*
Y351000D02*
D03*
Y281000D02*
D03*
Y309500D02*
D03*
Y294000D02*
D03*
Y364500D02*
D03*
D24*
X308000Y337000D02*
D03*
X298000D02*
D03*
X308000Y324000D02*
D03*
X298000D02*
D03*
X308000Y351000D02*
D03*
X298000D02*
D03*
X308000Y281000D02*
D03*
X298000D02*
D03*
X308000Y309500D02*
D03*
X298000D02*
D03*
X308000Y294000D02*
D03*
X298000D02*
D03*
X308000Y364500D02*
D03*
X298000D02*
D03*
X278500Y389500D02*
D03*
Y379500D02*
D03*
X265500Y389500D02*
D03*
Y379500D02*
D03*
X252000Y389500D02*
D03*
Y379500D02*
D03*
X239000Y389500D02*
D03*
Y379500D02*
D03*
D25*
X278500Y399500D02*
D03*
X265500D02*
D03*
X252000D02*
D03*
X239000D02*
D03*
D26*
X258457Y326220D02*
D03*
X261000Y326000D02*
D03*
X240500D02*
D03*
X269000Y325500D02*
D03*
Y321000D02*
D03*
Y317000D02*
D03*
Y313000D02*
D03*
X248220Y303780D02*
D03*
X255898D02*
D03*
X250780D02*
D03*
X253339D02*
D03*
X261016D02*
D03*
X240543D02*
D03*
X237984D02*
D03*
X243102D02*
D03*
X245661D02*
D03*
X216000Y349000D02*
D03*
X226500D02*
D03*
X236000D02*
D03*
X246500Y348500D02*
D03*
X256500Y349000D02*
D03*
X266500Y349500D02*
D03*
X276500Y280500D02*
D03*
X266500D02*
D03*
X256500D02*
D03*
X246500D02*
D03*
X236500D02*
D03*
X226500D02*
D03*
X216000D02*
D03*
D27*
X315000Y264000D02*
D03*
X208000D02*
D03*
Y401500D02*
D03*
X315500Y401000D02*
D03*
M02*
