M48
;Layer_Color=9474304
;FILE_FORMAT=2:5
INCH,TZ
;TYPE=PLATED
T1F00S00C0.01000
T2F00S00C0.03543
T3F00S00C0.09843
%
T01
X216000Y280500
X226500
X236500
X246500
X256500
X266500
X276500
X261016Y303780
X255898
X253339
X250780
X248220
X245661
X243102
X240543
X237984
X240500Y326000
X258457Y326220
X261000Y326000
X269000Y325500
Y321000
Y317000
Y313000
X266500Y349500
X256500Y349000
X246500Y348500
X236000Y349000
X226500
X216000
T02
X318000Y281000
Y294000
Y309500
X308000
X298000
Y294000
X308000
Y281000
X298000
Y324000
X308000
Y337000
X298000
Y351000
X308000
Y364500
X298000
X278500Y379500
Y389500
Y399500
X265500
Y389500
Y379500
X252000
Y389500
Y399500
X239000
Y389500
Y379500
X318000Y364500
Y351000
Y337000
Y324000
T03
X315000Y264000
X208000
Y401500
X315500Y401000
M30
