G04*
G04 #@! TF.GenerationSoftware,Altium Limited,Altium Designer,23.0.1 (38)*
G04*
G04 Layer_Color=65535*
%FSLAX25Y25*%
%MOIN*%
G70*
G04*
G04 #@! TF.SameCoordinates,7FA53B3A-F1D1-4194-8ECC-15494960791F*
G04*
G04*
G04 #@! TF.FilePolarity,Positive*
G04*
G01*
G75*
%ADD10C,0.01000*%
%ADD11C,0.00787*%
%ADD12C,0.00400*%
%ADD13C,0.00500*%
%ADD14C,0.00300*%
D10*
X211500Y312634D02*
G03*
X211500Y317634I0J2500D01*
G01*
X210500Y386000D02*
X211500D01*
X207500D02*
X210500D01*
X209000Y384500D02*
Y385000D01*
X209500Y385500D01*
X211000Y384000D01*
X207500D02*
X211000D01*
X207500D02*
X209500Y386000D01*
Y379500D02*
Y389500D01*
X211500Y298161D02*
Y312634D01*
Y317634D02*
Y332106D01*
X281500D01*
Y298161D02*
Y332106D01*
X211500Y298161D02*
X281500D01*
X279500Y267499D02*
X278500Y268499D01*
X276501D01*
X275501Y267499D01*
Y263501D01*
X276501Y262501D01*
X278500D01*
X279500Y263501D01*
X281499Y262501D02*
X283499D01*
X282499D01*
Y268499D01*
X281499Y267499D01*
X219001Y311501D02*
Y317499D01*
X221001Y315500D01*
X223000Y317499D01*
Y311501D01*
X224999D02*
X226999D01*
X225999D01*
Y317499D01*
X224999Y316499D01*
X205001Y369501D02*
X210999D01*
Y372500D01*
X209999Y373500D01*
X206001D01*
X205001Y372500D01*
Y369501D01*
X210999Y375499D02*
Y377499D01*
Y376499D01*
X205001D01*
X206001Y375499D01*
D11*
X295063Y262941D02*
Y268059D01*
X293000Y342000D02*
X323000D01*
X293000Y332000D02*
Y342000D01*
Y332000D02*
X323000D01*
Y342000D01*
X293000Y329000D02*
X323000D01*
X293000Y319000D02*
Y329000D01*
Y319000D02*
X323000D01*
Y329000D01*
X293000Y356000D02*
X323000D01*
X293000Y346000D02*
Y356000D01*
Y346000D02*
X323000D01*
Y356000D01*
X293000Y286000D02*
X323000D01*
X293000Y276000D02*
Y286000D01*
Y276000D02*
X323000D01*
Y286000D01*
X293000Y314500D02*
X323000D01*
X293000Y304500D02*
Y314500D01*
Y304500D02*
X323000D01*
Y314500D01*
X293000Y299000D02*
X323000D01*
X293000Y289000D02*
Y299000D01*
Y289000D02*
X323000D01*
Y299000D01*
X293000Y369500D02*
X323000D01*
X293000Y359500D02*
Y369500D01*
Y359500D02*
X323000D01*
Y369500D01*
X213941Y384937D02*
X219059D01*
X273500Y374500D02*
Y404500D01*
Y374500D02*
X283500D01*
Y404500D01*
X273500D02*
X283500D01*
X260500Y374500D02*
Y404500D01*
Y374500D02*
X270500D01*
Y404500D01*
X260500D02*
X270500D01*
X247000Y374500D02*
Y404500D01*
Y374500D02*
X257000D01*
Y404500D01*
X247000D02*
X257000D01*
X234000Y374500D02*
Y404500D01*
Y374500D02*
X244000D01*
Y404500D01*
X234000D02*
X244000D01*
D12*
X217400Y265400D02*
Y268399D01*
X218899D01*
X219399Y267899D01*
Y266899D01*
X218899Y266399D01*
X217400D01*
X218400D02*
X219399Y265400D01*
X222398Y267899D02*
X221899Y268399D01*
X220899D01*
X220399Y267899D01*
Y265899D01*
X220899Y265400D01*
X221899D01*
X222398Y265899D01*
X228396Y267899D02*
X227897Y268399D01*
X226897D01*
X226397Y267899D01*
Y267399D01*
X226897Y266899D01*
X227897D01*
X228396Y266399D01*
Y265899D01*
X227897Y265400D01*
X226897D01*
X226397Y265899D01*
X230896Y265400D02*
X229896D01*
X229396Y265899D01*
Y266899D01*
X229896Y267399D01*
X230896D01*
X231396Y266899D01*
Y266399D01*
X229396D01*
X232395Y267399D02*
Y265400D01*
Y266399D01*
X232895Y266899D01*
X233395Y267399D01*
X233895D01*
X235394D02*
X236394Y265400D01*
X237393Y267399D01*
X238893Y265400D02*
X239893D01*
X240393Y265899D01*
Y266899D01*
X239893Y267399D01*
X238893D01*
X238393Y266899D01*
Y265899D01*
X238893Y265400D01*
X246391Y268399D02*
X244391D01*
Y265400D01*
X246391D01*
X244391Y266899D02*
X245391D01*
X247390Y267399D02*
X249390Y265400D01*
X248390Y266399D01*
X249390Y267399D01*
X247390Y265400D01*
X250389Y264400D02*
Y267399D01*
X251889D01*
X252389Y266899D01*
Y265899D01*
X251889Y265400D01*
X250389D01*
X253888Y267399D02*
X254888D01*
X255388Y266899D01*
Y265400D01*
X253888D01*
X253388Y265899D01*
X253888Y266399D01*
X255388D01*
X256387Y265400D02*
Y267399D01*
X257887D01*
X258387Y266899D01*
Y265400D01*
X261386Y268399D02*
Y265400D01*
X259886D01*
X259386Y265899D01*
Y266899D01*
X259886Y267399D01*
X261386D01*
X263885Y265400D02*
X262885D01*
X262385Y265899D01*
Y266899D01*
X262885Y267399D01*
X263885D01*
X264385Y266899D01*
Y266399D01*
X262385D01*
X265385Y267399D02*
Y265400D01*
Y266399D01*
X265884Y266899D01*
X266384Y267399D01*
X266884D01*
X217400Y262899D02*
Y259900D01*
X218899D01*
X219399Y260400D01*
Y260899D01*
X218899Y261399D01*
X217400D01*
X218899D01*
X219399Y261899D01*
Y262399D01*
X218899Y262899D01*
X217400D01*
X220399Y261899D02*
Y260400D01*
X220899Y259900D01*
X222398D01*
Y259400D01*
X221899Y258900D01*
X221399D01*
X222398Y259900D02*
Y261899D01*
X226397Y262899D02*
X228396D01*
X227397D01*
Y259900D01*
X229396Y262899D02*
Y259900D01*
Y261399D01*
X229896Y261899D01*
X230896D01*
X231396Y261399D01*
Y259900D01*
X233895D02*
X232895D01*
X232395Y260400D01*
Y261399D01*
X232895Y261899D01*
X233895D01*
X234395Y261399D01*
Y260899D01*
X232395D01*
X235394Y259900D02*
Y262899D01*
X236894D01*
X237393Y262399D01*
Y261399D01*
X236894Y260899D01*
X235394D01*
X238393Y261899D02*
Y259900D01*
Y260899D01*
X238893Y261399D01*
X239393Y261899D01*
X239893D01*
X241892Y259900D02*
X242892D01*
X243392Y260400D01*
Y261399D01*
X242892Y261899D01*
X241892D01*
X241392Y261399D01*
Y260400D01*
X241892Y259900D01*
X244891D02*
Y262399D01*
Y261399D01*
X244391D01*
X245391D01*
X244891D01*
Y262399D01*
X245391Y262899D01*
X248390Y259900D02*
X247390D01*
X246890Y260400D01*
Y261399D01*
X247390Y261899D01*
X248390D01*
X248890Y261399D01*
Y260899D01*
X246890D01*
X249889Y259900D02*
X251389D01*
X251889Y260400D01*
X251389Y260899D01*
X250389D01*
X249889Y261399D01*
X250389Y261899D01*
X251889D01*
X252888Y259900D02*
X254388D01*
X254888Y260400D01*
X254388Y260899D01*
X253388D01*
X252888Y261399D01*
X253388Y261899D01*
X254888D01*
X256387Y259900D02*
X257387D01*
X257887Y260400D01*
Y261399D01*
X257387Y261899D01*
X256387D01*
X255888Y261399D01*
Y260400D01*
X256387Y259900D01*
X258887Y261899D02*
Y259900D01*
Y260899D01*
X259386Y261399D01*
X259886Y261899D01*
X260386D01*
X261886Y262899D02*
Y259900D01*
X263385D01*
X263885Y260400D01*
Y260899D01*
X263385Y261399D01*
X261886D01*
X263385D01*
X263885Y261899D01*
Y262399D01*
X263385Y262899D01*
X261886D01*
X266884D02*
X264885D01*
Y259900D01*
X266884D01*
X264885Y261399D02*
X265884D01*
D13*
X212500Y258166D02*
Y256166D01*
Y257166D01*
X212833Y257499D01*
X213500D01*
X213833Y257166D01*
Y256166D01*
X214833Y257833D02*
Y257499D01*
X214499D01*
X215166D01*
X214833D01*
Y256500D01*
X215166Y256166D01*
X216499Y257833D02*
Y257499D01*
X216165D01*
X216832D01*
X216499D01*
Y256500D01*
X216832Y256166D01*
X217832Y255500D02*
Y257499D01*
X218831D01*
X219164Y257166D01*
Y256500D01*
X218831Y256166D01*
X217832D01*
X219831D02*
X220831D01*
X221164Y256500D01*
X220831Y256833D01*
X220164D01*
X219831Y257166D01*
X220164Y257499D01*
X221164D01*
X221830D02*
X222164D01*
Y257166D01*
X221830D01*
Y257499D01*
Y256500D02*
X222164D01*
Y256166D01*
X221830D01*
Y256500D01*
X223496Y256166D02*
X224829Y257499D01*
X225496Y256166D02*
X226829Y257499D01*
X228162Y255500D02*
X228495D01*
X228828Y255833D01*
Y257499D01*
X227828D01*
X227495Y257166D01*
Y256500D01*
X227828Y256166D01*
X228828D01*
X229495D02*
X230161D01*
X229828D01*
Y257499D01*
X229495D01*
X231494Y257833D02*
Y257499D01*
X231161D01*
X231827D01*
X231494D01*
Y256500D01*
X231827Y256166D01*
X232827Y258166D02*
Y256166D01*
Y257166D01*
X233160Y257499D01*
X233826D01*
X234160Y257166D01*
Y256166D01*
X234826Y257499D02*
Y256500D01*
X235159Y256166D01*
X236159D01*
Y257499D01*
X236825Y258166D02*
Y256166D01*
X237825D01*
X238158Y256500D01*
Y256833D01*
Y257166D01*
X237825Y257499D01*
X236825D01*
X238825Y256166D02*
Y256500D01*
X239158D01*
Y256166D01*
X238825D01*
X241824Y257499D02*
X240824D01*
X240491Y257166D01*
Y256500D01*
X240824Y256166D01*
X241824D01*
X242824D02*
X243490D01*
X243823Y256500D01*
Y257166D01*
X243490Y257499D01*
X242824D01*
X242490Y257166D01*
Y256500D01*
X242824Y256166D01*
X244490D02*
Y257499D01*
X244823D01*
X245156Y257166D01*
Y256166D01*
Y257166D01*
X245489Y257499D01*
X245823Y257166D01*
Y256166D01*
X246489D02*
X247822Y257499D01*
X248488Y258166D02*
X249821D01*
X249155D01*
Y256166D01*
X250488Y258166D02*
Y256166D01*
Y257166D01*
X250821Y257499D01*
X251487D01*
X251821Y257166D01*
Y256166D01*
X253487D02*
X252820D01*
X252487Y256500D01*
Y257166D01*
X252820Y257499D01*
X253487D01*
X253820Y257166D01*
Y256833D01*
X252487D01*
X254486Y256166D02*
Y258166D01*
X255486D01*
X255819Y257833D01*
Y257166D01*
X255486Y256833D01*
X254486D01*
X256486Y257499D02*
Y256166D01*
Y256833D01*
X256819Y257166D01*
X257152Y257499D01*
X257485D01*
X258818Y256166D02*
X259485D01*
X259818Y256500D01*
Y257166D01*
X259485Y257499D01*
X258818D01*
X258485Y257166D01*
Y256500D01*
X258818Y256166D01*
X260818D02*
Y257833D01*
Y257166D01*
X260484D01*
X261151D01*
X260818D01*
Y257833D01*
X261151Y258166D01*
X263150Y256166D02*
X262484D01*
X262151Y256500D01*
Y257166D01*
X262484Y257499D01*
X263150D01*
X263484Y257166D01*
Y256833D01*
X262151D01*
X264150Y256166D02*
X265150D01*
X265483Y256500D01*
X265150Y256833D01*
X264483D01*
X264150Y257166D01*
X264483Y257499D01*
X265483D01*
X266149Y256166D02*
X267149D01*
X267482Y256500D01*
X267149Y256833D01*
X266482D01*
X266149Y257166D01*
X266482Y257499D01*
X267482D01*
X268482Y256166D02*
X269148D01*
X269481Y256500D01*
Y257166D01*
X269148Y257499D01*
X268482D01*
X268149Y257166D01*
Y256500D01*
X268482Y256166D01*
X270148Y257499D02*
Y256166D01*
Y256833D01*
X270481Y257166D01*
X270814Y257499D01*
X271148D01*
X272147Y258166D02*
Y256166D01*
X273147D01*
X273480Y256500D01*
Y256833D01*
X273147Y257166D01*
X272147D01*
X273147D01*
X273480Y257499D01*
Y257833D01*
X273147Y258166D01*
X272147D01*
X275480D02*
X274147D01*
Y256166D01*
X275480D01*
X274147Y257166D02*
X274813D01*
X276146Y256166D02*
X277479Y257499D01*
X278145Y256166D02*
Y258166D01*
X279145D01*
X279478Y257833D01*
Y257166D01*
X279145Y256833D01*
X278145D01*
X278812D02*
X279478Y256166D01*
X281478Y257833D02*
X281144Y258166D01*
X280478D01*
X280145Y257833D01*
Y256500D01*
X280478Y256166D01*
X281144D01*
X281478Y256500D01*
X283477Y257833D02*
X283144Y258166D01*
X282477D01*
X282144Y257833D01*
Y257499D01*
X282477Y257166D01*
X283144D01*
X283477Y256833D01*
Y256500D01*
X283144Y256166D01*
X282477D01*
X282144Y256500D01*
X285143Y256166D02*
X284477D01*
X284143Y256500D01*
Y257166D01*
X284477Y257499D01*
X285143D01*
X285476Y257166D01*
Y256833D01*
X284143D01*
X286143Y257499D02*
Y256166D01*
Y256833D01*
X286476Y257166D01*
X286809Y257499D01*
X287142D01*
X288142D02*
X288809Y256166D01*
X289475Y257499D01*
X290475Y256166D02*
X291141D01*
X291474Y256500D01*
Y257166D01*
X291141Y257499D01*
X290475D01*
X290142Y257166D01*
Y256500D01*
X290475Y256166D01*
X293474Y258166D02*
X292141D01*
Y256166D01*
X293474D01*
X292141Y257166D02*
X292807D01*
X294140Y257499D02*
X295473Y256166D01*
X294807Y256833D01*
X295473Y257499D01*
X294140Y256166D01*
X296140Y255500D02*
Y257499D01*
X297139D01*
X297472Y257166D01*
Y256500D01*
X297139Y256166D01*
X296140D01*
X298472Y257499D02*
X299138D01*
X299472Y257166D01*
Y256166D01*
X298472D01*
X298139Y256500D01*
X298472Y256833D01*
X299472D01*
X300138Y256166D02*
Y257499D01*
X301138D01*
X301471Y257166D01*
Y256166D01*
X303470Y258166D02*
Y256166D01*
X302471D01*
X302138Y256500D01*
Y257166D01*
X302471Y257499D01*
X303470D01*
X305137Y256166D02*
X304470D01*
X304137Y256500D01*
Y257166D01*
X304470Y257499D01*
X305137D01*
X305470Y257166D01*
Y256833D01*
X304137D01*
X306136Y257499D02*
Y256166D01*
Y256833D01*
X306469Y257166D01*
X306803Y257499D01*
X307136D01*
X308136Y256166D02*
X309469Y257499D01*
D14*
X326625Y340249D02*
X326875Y340499D01*
Y340999D01*
X326625Y341249D01*
X326375D01*
X326125Y340999D01*
Y340499D01*
X325875Y340249D01*
X325625D01*
X325375Y340499D01*
Y340999D01*
X325625Y341249D01*
X325125Y339749D02*
Y338749D01*
X326875Y337500D02*
Y338000D01*
X326625Y338250D01*
X325625D01*
X325375Y338000D01*
Y337500D01*
X325625Y337250D01*
X326625D01*
X326875Y337500D01*
Y336750D02*
X325625D01*
X325375Y336500D01*
Y336000D01*
X325625Y335750D01*
X326875D01*
Y335251D02*
Y334251D01*
Y334751D01*
X325375D01*
X326875Y332751D02*
Y333751D01*
X326125D01*
X326375Y333251D01*
Y333001D01*
X326125Y332751D01*
X325625D01*
X325375Y333001D01*
Y333501D01*
X325625Y333751D01*
X326125Y327249D02*
X326375Y327499D01*
Y327999D01*
X326125Y328249D01*
X325875D01*
X325625Y327999D01*
Y327499D01*
X325375Y327249D01*
X325125D01*
X324875Y327499D01*
Y327999D01*
X325125Y328249D01*
X324625Y326749D02*
Y325749D01*
X326375Y324500D02*
Y325000D01*
X326125Y325250D01*
X325125D01*
X324875Y325000D01*
Y324500D01*
X325125Y324250D01*
X326125D01*
X326375Y324500D01*
Y323750D02*
X325125D01*
X324875Y323500D01*
Y323000D01*
X325125Y322750D01*
X326375D01*
Y322251D02*
Y321251D01*
Y321751D01*
X324875D01*
Y320001D02*
X326375D01*
X325625Y320751D01*
Y319751D01*
X326625Y353749D02*
X326875Y353999D01*
Y354499D01*
X326625Y354749D01*
X326375D01*
X326125Y354499D01*
Y353999D01*
X325875Y353749D01*
X325625D01*
X325375Y353999D01*
Y354499D01*
X325625Y354749D01*
X325125Y353249D02*
Y352249D01*
X326875Y351000D02*
Y351500D01*
X326625Y351750D01*
X325625D01*
X325375Y351500D01*
Y351000D01*
X325625Y350750D01*
X326625D01*
X326875Y351000D01*
Y350250D02*
X325625D01*
X325375Y350000D01*
Y349500D01*
X325625Y349250D01*
X326875D01*
Y348751D02*
Y347751D01*
Y348251D01*
X325375D01*
X326875Y346251D02*
X326625Y346751D01*
X326125Y347251D01*
X325625D01*
X325375Y347001D01*
Y346501D01*
X325625Y346251D01*
X325875D01*
X326125Y346501D01*
Y347251D01*
X327125Y283999D02*
X327375Y284249D01*
Y284749D01*
X327125Y284999D01*
X326875D01*
X326625Y284749D01*
Y284249D01*
X326375Y283999D01*
X326125D01*
X325875Y284249D01*
Y284749D01*
X326125Y284999D01*
X325625Y283499D02*
Y282500D01*
X327375Y281250D02*
Y281750D01*
X327125Y282000D01*
X326125D01*
X325875Y281750D01*
Y281250D01*
X326125Y281000D01*
X327125D01*
X327375Y281250D01*
Y280500D02*
X326125D01*
X325875Y280250D01*
Y279750D01*
X326125Y279501D01*
X327375D01*
Y279001D02*
Y278001D01*
Y278501D01*
X325875D01*
Y277501D02*
Y277001D01*
Y277251D01*
X327375D01*
X327125Y277501D01*
X326625Y312749D02*
X326875Y312999D01*
Y313499D01*
X326625Y313749D01*
X326375D01*
X326125Y313499D01*
Y312999D01*
X325875Y312749D01*
X325625D01*
X325375Y312999D01*
Y313499D01*
X325625Y313749D01*
X325125Y312249D02*
Y311249D01*
X326875Y310000D02*
Y310500D01*
X326625Y310750D01*
X325625D01*
X325375Y310500D01*
Y310000D01*
X325625Y309750D01*
X326625D01*
X326875Y310000D01*
Y309250D02*
X325625D01*
X325375Y309000D01*
Y308500D01*
X325625Y308250D01*
X326875D01*
Y307751D02*
Y306751D01*
Y307251D01*
X325375D01*
X326625Y306251D02*
X326875Y306001D01*
Y305501D01*
X326625Y305251D01*
X326375D01*
X326125Y305501D01*
Y305751D01*
Y305501D01*
X325875Y305251D01*
X325625D01*
X325375Y305501D01*
Y306001D01*
X325625Y306251D01*
X326625Y296749D02*
X326875Y296999D01*
Y297499D01*
X326625Y297749D01*
X326375D01*
X326125Y297499D01*
Y296999D01*
X325875Y296749D01*
X325625D01*
X325375Y296999D01*
Y297499D01*
X325625Y297749D01*
X325125Y296249D02*
Y295249D01*
X326875Y294000D02*
Y294500D01*
X326625Y294750D01*
X325625D01*
X325375Y294500D01*
Y294000D01*
X325625Y293750D01*
X326625D01*
X326875Y294000D01*
Y293250D02*
X325625D01*
X325375Y293000D01*
Y292500D01*
X325625Y292250D01*
X326875D01*
Y291751D02*
Y290751D01*
Y291251D01*
X325375D01*
Y289251D02*
Y290251D01*
X326375Y289251D01*
X326625D01*
X326875Y289501D01*
Y290001D01*
X326625Y290251D01*
X326125Y367749D02*
X326375Y367999D01*
Y368499D01*
X326125Y368749D01*
X325875D01*
X325625Y368499D01*
Y367999D01*
X325375Y367749D01*
X325125D01*
X324875Y367999D01*
Y368499D01*
X325125Y368749D01*
X324625Y367249D02*
Y366249D01*
X326375Y365000D02*
Y365500D01*
X326125Y365750D01*
X325125D01*
X324875Y365500D01*
Y365000D01*
X325125Y364750D01*
X326125D01*
X326375Y365000D01*
Y364250D02*
X325125D01*
X324875Y364000D01*
Y363500D01*
X325125Y363250D01*
X326375D01*
Y362751D02*
Y361751D01*
Y362251D01*
X324875D01*
X326375Y361251D02*
Y360251D01*
X326125D01*
X325125Y361251D01*
X324875D01*
X276626Y407625D02*
X276376Y407875D01*
X275876D01*
X275626Y407625D01*
Y407375D01*
X275876Y407125D01*
X276376D01*
X276626Y406875D01*
Y406625D01*
X276376Y406375D01*
X275876D01*
X275626Y406625D01*
X277126Y406125D02*
X278125D01*
X278625Y407875D02*
X279125D01*
X278875D01*
Y406375D01*
X278625D01*
X279125D01*
X279875D02*
Y407875D01*
X280874Y406375D01*
Y407875D01*
X282124Y406375D02*
Y407875D01*
X281374Y407125D01*
X282374D01*
X263626Y408125D02*
X263376Y408375D01*
X262876D01*
X262626Y408125D01*
Y407875D01*
X262876Y407625D01*
X263376D01*
X263626Y407375D01*
Y407125D01*
X263376Y406875D01*
X262876D01*
X262626Y407125D01*
X264126Y406625D02*
X265125D01*
X265625Y408375D02*
X266125D01*
X265875D01*
Y406875D01*
X265625D01*
X266125D01*
X266875D02*
Y408375D01*
X267874Y406875D01*
Y408375D01*
X268374Y408125D02*
X268624Y408375D01*
X269124D01*
X269374Y408125D01*
Y407875D01*
X269124Y407625D01*
X268874D01*
X269124D01*
X269374Y407375D01*
Y407125D01*
X269124Y406875D01*
X268624D01*
X268374Y407125D01*
X249626Y408125D02*
X249376Y408375D01*
X248876D01*
X248626Y408125D01*
Y407875D01*
X248876Y407625D01*
X249376D01*
X249626Y407375D01*
Y407125D01*
X249376Y406875D01*
X248876D01*
X248626Y407125D01*
X250126Y406625D02*
X251125D01*
X251625Y408375D02*
X252125D01*
X251875D01*
Y406875D01*
X251625D01*
X252125D01*
X252875D02*
Y408375D01*
X253874Y406875D01*
Y408375D01*
X255374Y406875D02*
X254374D01*
X255374Y407875D01*
Y408125D01*
X255124Y408375D01*
X254624D01*
X254374Y408125D01*
X237876D02*
X237626Y408375D01*
X237126D01*
X236876Y408125D01*
Y407875D01*
X237126Y407625D01*
X237626D01*
X237876Y407375D01*
Y407125D01*
X237626Y406875D01*
X237126D01*
X236876Y407125D01*
X238375Y406625D02*
X239375D01*
X239875Y408375D02*
X240375D01*
X240125D01*
Y406875D01*
X239875D01*
X240375D01*
X241125D02*
Y408375D01*
X242124Y406875D01*
Y408375D01*
X242624Y406875D02*
X243124D01*
X242874D01*
Y408375D01*
X242624Y408125D01*
M02*
