G04*
G04 #@! TF.GenerationSoftware,Altium Limited,Altium Designer,23.0.1 (38)*
G04*
G04 Layer_Physical_Order=2*
G04 Layer_Color=16711680*
%FSLAX25Y25*%
%MOIN*%
G70*
G04*
G04 #@! TF.SameCoordinates,7FA53B3A-F1D1-4194-8ECC-15494960791F*
G04*
G04*
G04 #@! TF.FilePolarity,Positive*
G04*
G01*
G75*
%ADD10C,0.01000*%
%ADD15R,0.05512X0.05906*%
%ADD29R,0.05906X0.05906*%
%ADD30C,0.05906*%
%ADD31R,0.05906X0.05906*%
%ADD32C,0.02000*%
%ADD33C,0.11811*%
G04:AMPARAMS|DCode=34|XSize=15.75mil|YSize=47.24mil|CornerRadius=1.97mil|HoleSize=0mil|Usage=FLASHONLY|Rotation=180.000|XOffset=0mil|YOffset=0mil|HoleType=Round|Shape=RoundedRectangle|*
%AMROUNDEDRECTD34*
21,1,0.01575,0.04331,0,0,180.0*
21,1,0.01181,0.04724,0,0,180.0*
1,1,0.00394,-0.00591,0.02165*
1,1,0.00394,0.00591,0.02165*
1,1,0.00394,0.00591,-0.02165*
1,1,0.00394,-0.00591,-0.02165*
%
%ADD34ROUNDEDRECTD34*%
G36*
X331000Y254361D02*
X330645Y254008D01*
X199339Y254827D01*
X198034Y411645D01*
X198386Y412000D01*
X331000D01*
Y254361D01*
D02*
G37*
%LPC*%
G36*
X282453Y403453D02*
X279000D01*
Y400000D01*
X282453D01*
Y403453D01*
D02*
G37*
G36*
X269453D02*
X266000D01*
Y400000D01*
X269453D01*
Y403453D01*
D02*
G37*
G36*
X255953D02*
X252500D01*
Y400000D01*
X255953D01*
Y403453D01*
D02*
G37*
G36*
X242953D02*
X239500D01*
Y400000D01*
X242953D01*
Y403453D01*
D02*
G37*
G36*
X278000D02*
X274547D01*
Y400000D01*
X278000D01*
Y403453D01*
D02*
G37*
G36*
X265000D02*
X261547D01*
Y400000D01*
X265000D01*
Y403453D01*
D02*
G37*
G36*
X251500D02*
X248047D01*
Y400000D01*
X251500D01*
Y403453D01*
D02*
G37*
G36*
X238500D02*
X235047D01*
Y400000D01*
X238500D01*
Y403453D01*
D02*
G37*
G36*
X282453Y399000D02*
X279000D01*
Y395547D01*
X282453D01*
Y399000D01*
D02*
G37*
G36*
X278000D02*
X274547D01*
Y395547D01*
X278000D01*
Y399000D01*
D02*
G37*
G36*
X269453D02*
X266000D01*
Y395547D01*
X269453D01*
Y399000D01*
D02*
G37*
G36*
X265000D02*
X261547D01*
Y395547D01*
X265000D01*
Y399000D01*
D02*
G37*
G36*
X255953D02*
X252500D01*
Y395547D01*
X255953D01*
Y399000D01*
D02*
G37*
G36*
X251500D02*
X248047D01*
Y395547D01*
X251500D01*
Y399000D01*
D02*
G37*
G36*
X242953D02*
X239500D01*
Y395547D01*
X242953D01*
Y399000D01*
D02*
G37*
G36*
X238500D02*
X235047D01*
Y395547D01*
X238500D01*
Y399000D01*
D02*
G37*
G36*
X208631Y407905D02*
X207369D01*
X206132Y407659D01*
X204966Y407176D01*
X203917Y406475D01*
X203025Y405583D01*
X202324Y404534D01*
X201841Y403368D01*
X201594Y402131D01*
Y400869D01*
X201841Y399632D01*
X202324Y398466D01*
X203025Y397417D01*
X203917Y396525D01*
X204966Y395824D01*
X206132Y395341D01*
X207369Y395094D01*
X208631D01*
X209868Y395341D01*
X211034Y395824D01*
X212083Y396525D01*
X212976Y397417D01*
X213677Y398466D01*
X214159Y399632D01*
X214405Y400869D01*
Y402131D01*
X214159Y403368D01*
X213677Y404534D01*
X212976Y405583D01*
X212083Y406475D01*
X211034Y407176D01*
X209868Y407659D01*
X208631Y407905D01*
D02*
G37*
G36*
X316131Y407406D02*
X314869D01*
X313632Y407159D01*
X312466Y406676D01*
X311417Y405975D01*
X310525Y405083D01*
X309823Y404034D01*
X309341Y402868D01*
X309095Y401631D01*
Y400369D01*
X309341Y399132D01*
X309823Y397966D01*
X310525Y396917D01*
X311417Y396024D01*
X312466Y395323D01*
X313632Y394841D01*
X314869Y394595D01*
X316131D01*
X317368Y394841D01*
X318534Y395323D01*
X319583Y396024D01*
X320476Y396917D01*
X321177Y397966D01*
X321659Y399132D01*
X321905Y400369D01*
Y401631D01*
X321659Y402868D01*
X321177Y404034D01*
X320476Y405083D01*
X319583Y405975D01*
X318534Y406676D01*
X317368Y407159D01*
X316131Y407406D01*
D02*
G37*
G36*
X278955Y392953D02*
X278045D01*
X277167Y392718D01*
X276380Y392263D01*
X275737Y391620D01*
X275283Y390833D01*
X275047Y389955D01*
Y389045D01*
X275283Y388167D01*
X275737Y387380D01*
X276380Y386737D01*
X277167Y386282D01*
X278045Y386047D01*
X278955D01*
X279833Y386282D01*
X280620Y386737D01*
X281263Y387380D01*
X281717Y388167D01*
X281953Y389045D01*
Y389955D01*
X281717Y390833D01*
X281263Y391620D01*
X280620Y392263D01*
X279833Y392718D01*
X278955Y392953D01*
D02*
G37*
G36*
X265955D02*
X265045D01*
X264167Y392718D01*
X263380Y392263D01*
X262737Y391620D01*
X262282Y390833D01*
X262047Y389955D01*
Y389045D01*
X262282Y388167D01*
X262737Y387380D01*
X263380Y386737D01*
X264167Y386282D01*
X265045Y386047D01*
X265955D01*
X266833Y386282D01*
X267620Y386737D01*
X268263Y387380D01*
X268718Y388167D01*
X268953Y389045D01*
Y389955D01*
X268718Y390833D01*
X268263Y391620D01*
X267620Y392263D01*
X266833Y392718D01*
X265955Y392953D01*
D02*
G37*
G36*
X252455D02*
X251545D01*
X250667Y392718D01*
X249880Y392263D01*
X249237Y391620D01*
X248782Y390833D01*
X248547Y389955D01*
Y389045D01*
X248782Y388167D01*
X249237Y387380D01*
X249880Y386737D01*
X250667Y386282D01*
X251545Y386047D01*
X252455D01*
X253333Y386282D01*
X254120Y386737D01*
X254763Y387380D01*
X255218Y388167D01*
X255453Y389045D01*
Y389955D01*
X255218Y390833D01*
X254763Y391620D01*
X254120Y392263D01*
X253333Y392718D01*
X252455Y392953D01*
D02*
G37*
G36*
X239455D02*
X238545D01*
X237667Y392718D01*
X236880Y392263D01*
X236237Y391620D01*
X235783Y390833D01*
X235547Y389955D01*
Y389045D01*
X235783Y388167D01*
X236237Y387380D01*
X236880Y386737D01*
X237667Y386282D01*
X238545Y386047D01*
X239455D01*
X240333Y386282D01*
X241120Y386737D01*
X241763Y387380D01*
X242217Y388167D01*
X242453Y389045D01*
Y389955D01*
X242217Y390833D01*
X241763Y391620D01*
X241120Y392263D01*
X240333Y392718D01*
X239455Y392953D01*
D02*
G37*
G36*
X278955Y382953D02*
X278045D01*
X277167Y382717D01*
X276380Y382263D01*
X275737Y381620D01*
X275283Y380833D01*
X275047Y379955D01*
Y379045D01*
X275283Y378167D01*
X275737Y377380D01*
X276380Y376737D01*
X277167Y376283D01*
X278045Y376047D01*
X278955D01*
X279833Y376283D01*
X280620Y376737D01*
X281263Y377380D01*
X281717Y378167D01*
X281953Y379045D01*
Y379955D01*
X281717Y380833D01*
X281263Y381620D01*
X280620Y382263D01*
X279833Y382717D01*
X278955Y382953D01*
D02*
G37*
G36*
X265955D02*
X265045D01*
X264167Y382717D01*
X263380Y382263D01*
X262737Y381620D01*
X262282Y380833D01*
X262047Y379955D01*
Y379045D01*
X262282Y378167D01*
X262737Y377380D01*
X263380Y376737D01*
X264167Y376283D01*
X265045Y376047D01*
X265955D01*
X266833Y376283D01*
X267620Y376737D01*
X268263Y377380D01*
X268718Y378167D01*
X268953Y379045D01*
Y379955D01*
X268718Y380833D01*
X268263Y381620D01*
X267620Y382263D01*
X266833Y382717D01*
X265955Y382953D01*
D02*
G37*
G36*
X252455D02*
X251545D01*
X250667Y382717D01*
X249880Y382263D01*
X249237Y381620D01*
X248782Y380833D01*
X248547Y379955D01*
Y379045D01*
X248782Y378167D01*
X249237Y377380D01*
X249880Y376737D01*
X250667Y376283D01*
X251545Y376047D01*
X252455D01*
X253333Y376283D01*
X254120Y376737D01*
X254763Y377380D01*
X255218Y378167D01*
X255453Y379045D01*
Y379955D01*
X255218Y380833D01*
X254763Y381620D01*
X254120Y382263D01*
X253333Y382717D01*
X252455Y382953D01*
D02*
G37*
G36*
X239455D02*
X238545D01*
X237667Y382717D01*
X236880Y382263D01*
X236237Y381620D01*
X235783Y380833D01*
X235547Y379955D01*
Y379045D01*
X235783Y378167D01*
X236237Y377380D01*
X236880Y376737D01*
X237667Y376283D01*
X238545Y376047D01*
X239455D01*
X240333Y376283D01*
X241120Y376737D01*
X241763Y377380D01*
X242217Y378167D01*
X242453Y379045D01*
Y379955D01*
X242217Y380833D01*
X241763Y381620D01*
X241120Y382263D01*
X240333Y382717D01*
X239455Y382953D01*
D02*
G37*
G36*
X321953Y368453D02*
X318500D01*
Y365000D01*
X321953D01*
Y368453D01*
D02*
G37*
G36*
X317500D02*
X314047D01*
Y365000D01*
X317500D01*
Y368453D01*
D02*
G37*
G36*
X308455Y367953D02*
X307545D01*
X306667Y367718D01*
X305880Y367263D01*
X305237Y366620D01*
X304783Y365833D01*
X304547Y364955D01*
Y364045D01*
X304783Y363167D01*
X305237Y362380D01*
X305880Y361737D01*
X306667Y361282D01*
X307545Y361047D01*
X308455D01*
X309333Y361282D01*
X310120Y361737D01*
X310763Y362380D01*
X311217Y363167D01*
X311453Y364045D01*
Y364955D01*
X311217Y365833D01*
X310763Y366620D01*
X310120Y367263D01*
X309333Y367718D01*
X308455Y367953D01*
D02*
G37*
G36*
X298455D02*
X297545D01*
X296667Y367718D01*
X295880Y367263D01*
X295237Y366620D01*
X294782Y365833D01*
X294699Y365520D01*
X285500D01*
X285110Y365442D01*
X284779Y365221D01*
X281279Y361721D01*
X281058Y361390D01*
X280980Y361000D01*
Y338922D01*
X272578Y330520D01*
X265586D01*
X265196Y330442D01*
X264865Y330221D01*
X264279Y329635D01*
X264058Y329304D01*
X263980Y328914D01*
Y317000D01*
X264058Y316610D01*
X264279Y316279D01*
X267500Y313058D01*
Y312702D01*
X267728Y312150D01*
X268150Y311728D01*
X268332Y311653D01*
X268450Y311063D01*
X266406Y309020D01*
X255115D01*
X254924Y309482D01*
X256619Y311177D01*
X256840Y311508D01*
X256917Y311898D01*
Y322648D01*
X257397Y322926D01*
X257417Y322924D01*
X257866Y322835D01*
X257957D01*
Y326220D01*
X258957D01*
Y322835D01*
X259047D01*
X259514Y322928D01*
X259910Y323192D01*
X260032Y323375D01*
X260153Y323399D01*
X260425Y323345D01*
X261606D01*
X261878Y323399D01*
X262109Y323553D01*
X262263Y323783D01*
X262317Y324055D01*
Y325259D01*
X262500Y325702D01*
Y326298D01*
X262317Y326741D01*
Y328386D01*
X262263Y328658D01*
X262109Y328888D01*
X262020Y328948D01*
Y330000D01*
X261942Y330390D01*
X261721Y330721D01*
X260721Y331721D01*
X260390Y331942D01*
X260000Y332020D01*
X240922D01*
X237020Y335922D01*
Y347898D01*
X237272Y348150D01*
X237500Y348702D01*
Y349298D01*
X237272Y349850D01*
X236850Y350272D01*
X236298Y350500D01*
X235702D01*
X235150Y350272D01*
X234728Y349850D01*
X234500Y349298D01*
Y348702D01*
X234728Y348150D01*
X234980Y347898D01*
Y335500D01*
X235058Y335110D01*
X235279Y334779D01*
X239480Y330578D01*
Y329174D01*
X239329Y329067D01*
X238980Y328953D01*
X238847Y329042D01*
X238575Y329096D01*
X237394D01*
X237122Y329042D01*
X236891Y328888D01*
X236737Y328658D01*
X236683Y328386D01*
Y327240D01*
X222721D01*
X222330Y327162D01*
X222000Y326941D01*
X215279Y320221D01*
X215058Y319890D01*
X214980Y319500D01*
Y281602D01*
X214728Y281350D01*
X214500Y280798D01*
Y280202D01*
X214728Y279650D01*
X215150Y279228D01*
X215702Y279000D01*
X216298D01*
X216850Y279228D01*
X217272Y279650D01*
X217500Y280202D01*
Y280798D01*
X217272Y281350D01*
X217020Y281602D01*
Y319078D01*
X223143Y325201D01*
X236683D01*
Y324055D01*
X236737Y323783D01*
X236891Y323553D01*
X237122Y323399D01*
X237394Y323345D01*
X238575D01*
X238847Y323399D01*
X239077Y323553D01*
X239450D01*
X239681Y323399D01*
X239953Y323345D01*
X241134D01*
X241406Y323399D01*
X241590Y323522D01*
X241809Y323463D01*
X242083Y323321D01*
Y319171D01*
X241931Y319020D01*
X230636D01*
X230246Y318942D01*
X229915Y318721D01*
X225279Y314085D01*
X225058Y313754D01*
X224980Y313364D01*
Y296479D01*
X225058Y296089D01*
X225279Y295758D01*
X226298Y294740D01*
X225779Y294221D01*
X225558Y293890D01*
X225480Y293500D01*
Y281602D01*
X225228Y281350D01*
X225000Y280798D01*
Y280202D01*
X225228Y279650D01*
X225650Y279228D01*
X226202Y279000D01*
X226798D01*
X227350Y279228D01*
X227772Y279650D01*
X228000Y280202D01*
Y280798D01*
X227772Y281350D01*
X227520Y281602D01*
Y293078D01*
X228046Y293604D01*
X228267Y293935D01*
X228309Y294143D01*
X228812Y294347D01*
X230880Y292279D01*
X231210Y292058D01*
X231600Y291980D01*
X233078D01*
X235480Y289578D01*
Y281602D01*
X235228Y281350D01*
X235000Y280798D01*
Y280202D01*
X235228Y279650D01*
X235650Y279228D01*
X236202Y279000D01*
X236798D01*
X237350Y279228D01*
X237772Y279650D01*
X238000Y280202D01*
Y280798D01*
X237772Y281350D01*
X237520Y281602D01*
Y290000D01*
X237442Y290390D01*
X237221Y290721D01*
X234924Y293019D01*
X235115Y293480D01*
X243078D01*
X245480Y291078D01*
Y281602D01*
X245228Y281350D01*
X245000Y280798D01*
Y280202D01*
X245228Y279650D01*
X245650Y279228D01*
X246202Y279000D01*
X246798D01*
X247350Y279228D01*
X247772Y279650D01*
X248000Y280202D01*
Y280798D01*
X247772Y281350D01*
X247520Y281602D01*
Y291500D01*
X247442Y291890D01*
X247221Y292221D01*
X244923Y294518D01*
X245115Y294980D01*
X254578D01*
X255480Y294078D01*
Y281602D01*
X255228Y281350D01*
X255000Y280798D01*
Y280202D01*
X255228Y279650D01*
X255650Y279228D01*
X256202Y279000D01*
X256798D01*
X257350Y279228D01*
X257772Y279650D01*
X258000Y280202D01*
Y280798D01*
X257772Y281350D01*
X257520Y281602D01*
Y294500D01*
X257442Y294890D01*
X257221Y295221D01*
X256423Y296019D01*
X256615Y296480D01*
X263078D01*
X265480Y294078D01*
Y281602D01*
X265228Y281350D01*
X265000Y280798D01*
Y280202D01*
X265228Y279650D01*
X265650Y279228D01*
X266202Y279000D01*
X266798D01*
X267350Y279228D01*
X267772Y279650D01*
X268000Y280202D01*
Y280798D01*
X267772Y281350D01*
X267520Y281602D01*
Y294500D01*
X267442Y294890D01*
X267221Y295221D01*
X264924Y297518D01*
X265115Y297980D01*
X273578D01*
X275480Y296078D01*
Y281602D01*
X275228Y281350D01*
X275000Y280798D01*
Y280202D01*
X275228Y279650D01*
X275650Y279228D01*
X276202Y279000D01*
X276798D01*
X277350Y279228D01*
X277772Y279650D01*
X278000Y280202D01*
Y280798D01*
X277772Y281350D01*
X277520Y281602D01*
Y296500D01*
X277442Y296890D01*
X277221Y297221D01*
X274721Y299721D01*
X274390Y299942D01*
X274000Y300020D01*
X262466D01*
X262402Y300105D01*
X262469Y300751D01*
X262734Y301147D01*
X262827Y301614D01*
Y302925D01*
X262973Y303279D01*
X261016D01*
Y304279D01*
X262973D01*
X262827Y304634D01*
Y305945D01*
X262734Y306412D01*
X262688Y306480D01*
X262955Y306980D01*
X268641D01*
X269307Y306314D01*
Y301047D01*
X275819D01*
Y307953D01*
X270552D01*
X269784Y308721D01*
X269733Y308755D01*
X269645Y309375D01*
X274751Y314480D01*
X301578D01*
X304945Y311114D01*
X304783Y310833D01*
X304547Y309955D01*
Y309045D01*
X304783Y308167D01*
X305237Y307380D01*
X305880Y306737D01*
X306667Y306282D01*
X307545Y306047D01*
X308455D01*
X309333Y306282D01*
X310120Y306737D01*
X310763Y307380D01*
X311217Y308167D01*
X311453Y309045D01*
Y309955D01*
X311217Y310833D01*
X310763Y311620D01*
X310120Y312263D01*
X309333Y312718D01*
X308455Y312953D01*
X307545D01*
X306667Y312718D01*
X306386Y312555D01*
X302721Y316221D01*
X302390Y316442D01*
X302000Y316520D01*
X274328D01*
X273938Y316442D01*
X273607Y316221D01*
X270937Y313550D01*
X270347Y313668D01*
X270272Y313850D01*
X269850Y314272D01*
X269298Y314500D01*
X268942D01*
X268329Y315113D01*
X268612Y315537D01*
X268702Y315500D01*
X269298D01*
X269850Y315728D01*
X270272Y316150D01*
X270500Y316702D01*
Y317298D01*
X270272Y317850D01*
X269850Y318272D01*
X269298Y318500D01*
X268942D01*
X268329Y319113D01*
X268612Y319537D01*
X268702Y319500D01*
X269298D01*
X269850Y319728D01*
X270102Y319980D01*
X275500D01*
X275890Y320058D01*
X276221Y320279D01*
X282721Y326779D01*
X282942Y327110D01*
X283020Y327500D01*
Y328078D01*
X290922Y335980D01*
X294699D01*
X294782Y335667D01*
X295237Y334880D01*
X295880Y334237D01*
X296667Y333783D01*
X297545Y333547D01*
X298455D01*
X299333Y333783D01*
X300120Y334237D01*
X300763Y334880D01*
X301218Y335667D01*
X301453Y336545D01*
Y337455D01*
X301218Y338333D01*
X300763Y339120D01*
X300120Y339763D01*
X299333Y340217D01*
X298455Y340453D01*
X297545D01*
X296667Y340217D01*
X295880Y339763D01*
X295237Y339120D01*
X294782Y338333D01*
X294699Y338020D01*
X290500D01*
X290110Y337942D01*
X289779Y337721D01*
X281279Y329221D01*
X281058Y328890D01*
X280980Y328500D01*
Y327922D01*
X275078Y322020D01*
X270102D01*
X269850Y322272D01*
X269298Y322500D01*
X268702D01*
X268150Y322272D01*
X268020Y322141D01*
X267520Y322348D01*
Y324152D01*
X268020Y324359D01*
X268150Y324228D01*
X268702Y324000D01*
X269298D01*
X269850Y324228D01*
X270272Y324650D01*
X270500Y325202D01*
Y325798D01*
X270272Y326350D01*
X270141Y326480D01*
X270348Y326980D01*
X275500D01*
X275890Y327058D01*
X276221Y327279D01*
X285721Y336779D01*
X285942Y337110D01*
X286020Y337500D01*
Y348578D01*
X287422Y349980D01*
X294699D01*
X294782Y349667D01*
X295237Y348880D01*
X295880Y348237D01*
X296667Y347782D01*
X297545Y347547D01*
X298455D01*
X299333Y347782D01*
X300120Y348237D01*
X300763Y348880D01*
X301218Y349667D01*
X301453Y350545D01*
Y351455D01*
X301218Y352333D01*
X300763Y353120D01*
X300120Y353763D01*
X299333Y354218D01*
X298455Y354453D01*
X297545D01*
X296667Y354218D01*
X295880Y353763D01*
X295237Y353120D01*
X294782Y352333D01*
X294699Y352020D01*
X287000D01*
X286610Y351942D01*
X286279Y351721D01*
X284279Y349721D01*
X284058Y349390D01*
X283980Y349000D01*
Y337922D01*
X275078Y329020D01*
X274615D01*
X274424Y329482D01*
X282721Y337779D01*
X282942Y338110D01*
X283020Y338500D01*
Y360578D01*
X285922Y363480D01*
X294699D01*
X294782Y363167D01*
X295237Y362380D01*
X295880Y361737D01*
X296667Y361282D01*
X297545Y361047D01*
X298455D01*
X299333Y361282D01*
X300120Y361737D01*
X300763Y362380D01*
X301218Y363167D01*
X301453Y364045D01*
Y364955D01*
X301218Y365833D01*
X300763Y366620D01*
X300120Y367263D01*
X299333Y367718D01*
X298455Y367953D01*
D02*
G37*
G36*
X321953Y364000D02*
X318500D01*
Y360547D01*
X321953D01*
Y364000D01*
D02*
G37*
G36*
X317500D02*
X314047D01*
Y360547D01*
X317500D01*
Y364000D01*
D02*
G37*
G36*
X321953Y354953D02*
X318500D01*
Y351500D01*
X321953D01*
Y354953D01*
D02*
G37*
G36*
X317500D02*
X314047D01*
Y351500D01*
X317500D01*
Y354953D01*
D02*
G37*
G36*
X227000Y350958D02*
Y349500D01*
X228458D01*
X228196Y350133D01*
X227633Y350695D01*
X227000Y350958D01*
D02*
G37*
G36*
X226000D02*
X225367Y350695D01*
X224804Y350133D01*
X224542Y349500D01*
X226000D01*
Y350958D01*
D02*
G37*
G36*
X266798Y351000D02*
X266202D01*
X265650Y350772D01*
X265228Y350350D01*
X265000Y349798D01*
Y349202D01*
X265228Y348650D01*
X265650Y348228D01*
X266202Y348000D01*
X266798D01*
X267350Y348228D01*
X267772Y348650D01*
X268000Y349202D01*
Y349798D01*
X267772Y350350D01*
X267350Y350772D01*
X266798Y351000D01*
D02*
G37*
G36*
X308455Y354453D02*
X307545D01*
X306667Y354218D01*
X305880Y353763D01*
X305237Y353120D01*
X304783Y352333D01*
X304547Y351455D01*
Y350545D01*
X304783Y349667D01*
X305237Y348880D01*
X305880Y348237D01*
X306667Y347782D01*
X307545Y347547D01*
X308455D01*
X309333Y347782D01*
X310120Y348237D01*
X310763Y348880D01*
X311217Y349667D01*
X311453Y350545D01*
Y351455D01*
X311217Y352333D01*
X310763Y353120D01*
X310120Y353763D01*
X309333Y354218D01*
X308455Y354453D01*
D02*
G37*
G36*
X256798Y350500D02*
X256202D01*
X255650Y350272D01*
X255228Y349850D01*
X255000Y349298D01*
Y348702D01*
X255228Y348150D01*
X255650Y347728D01*
X256202Y347500D01*
X256798D01*
X257350Y347728D01*
X257772Y348150D01*
X258000Y348702D01*
Y349298D01*
X257772Y349850D01*
X257350Y350272D01*
X256798Y350500D01*
D02*
G37*
G36*
X216298D02*
X215702D01*
X215150Y350272D01*
X214728Y349850D01*
X214500Y349298D01*
Y348702D01*
X214728Y348150D01*
X215150Y347728D01*
X215702Y347500D01*
X216298D01*
X216850Y347728D01*
X217272Y348150D01*
X217500Y348702D01*
Y349298D01*
X217272Y349850D01*
X216850Y350272D01*
X216298Y350500D01*
D02*
G37*
G36*
X321953D02*
X318500D01*
Y347047D01*
X321953D01*
Y350500D01*
D02*
G37*
G36*
X317500D02*
X314047D01*
Y347047D01*
X317500D01*
Y350500D01*
D02*
G37*
G36*
X228458Y348500D02*
X227000D01*
Y347042D01*
X227633Y347305D01*
X228196Y347867D01*
X228458Y348500D01*
D02*
G37*
G36*
X226000D02*
X224542D01*
X224804Y347867D01*
X225367Y347305D01*
X226000Y347042D01*
Y348500D01*
D02*
G37*
G36*
X246798Y350000D02*
X246202D01*
X245650Y349772D01*
X245228Y349350D01*
X245000Y348798D01*
Y348202D01*
X245228Y347650D01*
X245650Y347228D01*
X246202Y347000D01*
X246798D01*
X247350Y347228D01*
X247772Y347650D01*
X248000Y348202D01*
Y348798D01*
X247772Y349350D01*
X247350Y349772D01*
X246798Y350000D01*
D02*
G37*
G36*
X321953Y340953D02*
X318500D01*
Y337500D01*
X321953D01*
Y340953D01*
D02*
G37*
G36*
X317500D02*
X314047D01*
Y337500D01*
X317500D01*
Y340953D01*
D02*
G37*
G36*
X308455Y340453D02*
X307545D01*
X306667Y340217D01*
X305880Y339763D01*
X305237Y339120D01*
X304783Y338333D01*
X304547Y337455D01*
Y336545D01*
X304783Y335667D01*
X305237Y334880D01*
X305880Y334237D01*
X306667Y333783D01*
X307545Y333547D01*
X308455D01*
X309333Y333783D01*
X310120Y334237D01*
X310763Y334880D01*
X311217Y335667D01*
X311453Y336545D01*
Y337455D01*
X311217Y338333D01*
X310763Y339120D01*
X310120Y339763D01*
X309333Y340217D01*
X308455Y340453D01*
D02*
G37*
G36*
X321953Y336500D02*
X318500D01*
Y333047D01*
X321953D01*
Y336500D01*
D02*
G37*
G36*
X317500D02*
X314047D01*
Y333047D01*
X317500D01*
Y336500D01*
D02*
G37*
G36*
X321953Y327953D02*
X318500D01*
Y324500D01*
X321953D01*
Y327953D01*
D02*
G37*
G36*
X317500D02*
X314047D01*
Y324500D01*
X317500D01*
Y327953D01*
D02*
G37*
G36*
X308455Y327453D02*
X307545D01*
X306667Y327218D01*
X305880Y326763D01*
X305237Y326120D01*
X304783Y325333D01*
X304547Y324455D01*
Y323545D01*
X304783Y322667D01*
X305237Y321880D01*
X305880Y321237D01*
X306667Y320782D01*
X307545Y320547D01*
X308455D01*
X309333Y320782D01*
X310120Y321237D01*
X310763Y321880D01*
X311217Y322667D01*
X311453Y323545D01*
Y324455D01*
X311217Y325333D01*
X310763Y326120D01*
X310120Y326763D01*
X309333Y327218D01*
X308455Y327453D01*
D02*
G37*
G36*
X298455D02*
X297545D01*
X296667Y327218D01*
X295880Y326763D01*
X295237Y326120D01*
X294782Y325333D01*
X294547Y324455D01*
Y323545D01*
X294782Y322667D01*
X295237Y321880D01*
X295880Y321237D01*
X296667Y320782D01*
X297545Y320547D01*
X298455D01*
X299333Y320782D01*
X300120Y321237D01*
X300763Y321880D01*
X301218Y322667D01*
X301453Y323545D01*
Y324455D01*
X301218Y325333D01*
X300763Y326120D01*
X300120Y326763D01*
X299333Y327218D01*
X298455Y327453D01*
D02*
G37*
G36*
X321953Y323500D02*
X318500D01*
Y320047D01*
X321953D01*
Y323500D01*
D02*
G37*
G36*
X317500D02*
X314047D01*
Y320047D01*
X317500D01*
Y323500D01*
D02*
G37*
G36*
X321953Y313453D02*
X318500D01*
Y310000D01*
X321953D01*
Y313453D01*
D02*
G37*
G36*
X317500D02*
X314047D01*
Y310000D01*
X317500D01*
Y313453D01*
D02*
G37*
G36*
X298455Y312953D02*
X297545D01*
X296667Y312718D01*
X295880Y312263D01*
X295237Y311620D01*
X294782Y310833D01*
X294547Y309955D01*
Y309045D01*
X294782Y308167D01*
X295237Y307380D01*
X295880Y306737D01*
X296667Y306282D01*
X297545Y306047D01*
X298455D01*
X299333Y306282D01*
X300120Y306737D01*
X300763Y307380D01*
X301218Y308167D01*
X301453Y309045D01*
Y309955D01*
X301218Y310833D01*
X300763Y311620D01*
X300120Y312263D01*
X299333Y312718D01*
X298455Y312953D01*
D02*
G37*
G36*
X321953Y309000D02*
X318500D01*
Y305547D01*
X321953D01*
Y309000D01*
D02*
G37*
G36*
X317500D02*
X314047D01*
Y305547D01*
X317500D01*
Y309000D01*
D02*
G37*
G36*
X284193Y308453D02*
X280937D01*
Y305000D01*
X284193D01*
Y308453D01*
D02*
G37*
G36*
X279937D02*
X276681D01*
Y305000D01*
X279937D01*
Y308453D01*
D02*
G37*
G36*
X284193Y304000D02*
X280937D01*
Y300547D01*
X284193D01*
Y304000D01*
D02*
G37*
G36*
X279937D02*
X276681D01*
Y300547D01*
X279937D01*
Y304000D01*
D02*
G37*
G36*
X321953Y297953D02*
X318500D01*
Y294500D01*
X321953D01*
Y297953D01*
D02*
G37*
G36*
X317500D02*
X314047D01*
Y294500D01*
X317500D01*
Y297953D01*
D02*
G37*
G36*
X308455Y297453D02*
X307545D01*
X306667Y297217D01*
X305880Y296763D01*
X305237Y296120D01*
X304783Y295333D01*
X304547Y294455D01*
Y293545D01*
X304783Y292667D01*
X305237Y291880D01*
X305880Y291237D01*
X306667Y290782D01*
X307545Y290547D01*
X308455D01*
X309333Y290782D01*
X310120Y291237D01*
X310763Y291880D01*
X311217Y292667D01*
X311453Y293545D01*
Y294455D01*
X311217Y295333D01*
X310763Y296120D01*
X310120Y296763D01*
X309333Y297217D01*
X308455Y297453D01*
D02*
G37*
G36*
X298455D02*
X297545D01*
X296667Y297217D01*
X295880Y296763D01*
X295237Y296120D01*
X294782Y295333D01*
X294547Y294455D01*
Y293545D01*
X294782Y292667D01*
X295237Y291880D01*
X295880Y291237D01*
X296667Y290782D01*
X297545Y290547D01*
X298455D01*
X299333Y290782D01*
X300120Y291237D01*
X300763Y291880D01*
X301218Y292667D01*
X301453Y293545D01*
Y294455D01*
X301218Y295333D01*
X300763Y296120D01*
X300120Y296763D01*
X299333Y297217D01*
X298455Y297453D01*
D02*
G37*
G36*
X321953Y293500D02*
X318500D01*
Y290047D01*
X321953D01*
Y293500D01*
D02*
G37*
G36*
X317500D02*
X314047D01*
Y290047D01*
X317500D01*
Y293500D01*
D02*
G37*
G36*
X321953Y284953D02*
X318500D01*
Y281500D01*
X321953D01*
Y284953D01*
D02*
G37*
G36*
X317500D02*
X314047D01*
Y281500D01*
X317500D01*
Y284953D01*
D02*
G37*
G36*
X308455Y284453D02*
X307545D01*
X306667Y284218D01*
X305880Y283763D01*
X305237Y283120D01*
X304783Y282333D01*
X304547Y281455D01*
Y280545D01*
X304783Y279667D01*
X305237Y278880D01*
X305880Y278237D01*
X306667Y277783D01*
X307545Y277547D01*
X308455D01*
X309333Y277783D01*
X310120Y278237D01*
X310763Y278880D01*
X311217Y279667D01*
X311453Y280545D01*
Y281455D01*
X311217Y282333D01*
X310763Y283120D01*
X310120Y283763D01*
X309333Y284218D01*
X308455Y284453D01*
D02*
G37*
G36*
X298455D02*
X297545D01*
X296667Y284218D01*
X295880Y283763D01*
X295237Y283120D01*
X294782Y282333D01*
X294547Y281455D01*
Y280545D01*
X294782Y279667D01*
X295237Y278880D01*
X295880Y278237D01*
X296667Y277783D01*
X297545Y277547D01*
X298455D01*
X299333Y277783D01*
X300120Y278237D01*
X300763Y278880D01*
X301218Y279667D01*
X301453Y280545D01*
Y281455D01*
X301218Y282333D01*
X300763Y283120D01*
X300120Y283763D01*
X299333Y284218D01*
X298455Y284453D01*
D02*
G37*
G36*
X321953Y280500D02*
X318500D01*
Y277047D01*
X321953D01*
Y280500D01*
D02*
G37*
G36*
X317500D02*
X314047D01*
Y277047D01*
X317500D01*
Y280500D01*
D02*
G37*
G36*
X315631Y270406D02*
X314369D01*
X313132Y270159D01*
X311966Y269676D01*
X310917Y268975D01*
X310024Y268083D01*
X309324Y267034D01*
X308841Y265868D01*
X308594Y264631D01*
Y263369D01*
X308841Y262132D01*
X309324Y260966D01*
X310024Y259917D01*
X310917Y259025D01*
X311966Y258324D01*
X313132Y257841D01*
X314369Y257594D01*
X315631D01*
X316868Y257841D01*
X318034Y258324D01*
X319083Y259025D01*
X319975Y259917D01*
X320676Y260966D01*
X321159Y262132D01*
X321406Y263369D01*
Y264631D01*
X321159Y265868D01*
X320676Y267034D01*
X319975Y268083D01*
X319083Y268975D01*
X318034Y269676D01*
X316868Y270159D01*
X315631Y270406D01*
D02*
G37*
G36*
X208631D02*
X207369D01*
X206132Y270159D01*
X204966Y269676D01*
X203917Y268975D01*
X203025Y268083D01*
X202324Y267034D01*
X201841Y265868D01*
X201594Y264631D01*
Y263369D01*
X201841Y262132D01*
X202324Y260966D01*
X203025Y259917D01*
X203917Y259025D01*
X204966Y258324D01*
X206132Y257841D01*
X207369Y257594D01*
X208631D01*
X209868Y257841D01*
X211034Y258324D01*
X212083Y259025D01*
X212976Y259917D01*
X213677Y260966D01*
X214159Y262132D01*
X214405Y263369D01*
Y264631D01*
X214159Y265868D01*
X213677Y267034D01*
X212976Y268083D01*
X212083Y268975D01*
X211034Y269676D01*
X209868Y270159D01*
X208631Y270406D01*
D02*
G37*
%LPD*%
G36*
X241451Y308018D02*
X240594Y307162D01*
X240373Y306831D01*
X240338Y306655D01*
X239953D01*
X239681Y306601D01*
X239450Y306447D01*
X239077D01*
X238847Y306601D01*
X238575Y306655D01*
X237394D01*
X237122Y306601D01*
X236891Y306447D01*
X236737Y306217D01*
X236683Y305945D01*
Y304558D01*
X236484Y304078D01*
Y303481D01*
X236683Y303001D01*
Y301614D01*
X236737Y301342D01*
X236891Y301112D01*
X237122Y300958D01*
X237394Y300904D01*
X238575D01*
X238847Y300958D01*
X239077Y301112D01*
X239450D01*
X239681Y300958D01*
X239953Y300904D01*
X241134D01*
X241406Y300958D01*
X241636Y301112D01*
X242009D01*
X242240Y300958D01*
X242512Y300904D01*
X243693D01*
X243965Y300958D01*
X244195Y301112D01*
X244568D01*
X244799Y300958D01*
X245071Y300904D01*
X246252D01*
X246524Y300958D01*
X246754Y301112D01*
X247128D01*
X247358Y300958D01*
X247630Y300904D01*
X248811D01*
X249083Y300958D01*
X249313Y301112D01*
X249687D01*
X249917Y300958D01*
X250189Y300904D01*
X251370D01*
X251642Y300958D01*
X251872Y301112D01*
X252246D01*
X252476Y300958D01*
X252748Y300904D01*
X253929D01*
X254201Y300958D01*
X254432Y301112D01*
X254805D01*
X255035Y300958D01*
X255307Y300904D01*
X256488D01*
X256760Y300958D01*
X256991Y301112D01*
X257364D01*
X257594Y300958D01*
X257866Y300904D01*
X259047D01*
X259319Y300958D01*
X259440Y300934D01*
X259562Y300751D01*
X259630Y300105D01*
X259566Y300020D01*
X234520D01*
Y308480D01*
X241260D01*
X241451Y308018D01*
D02*
G37*
D10*
X274328Y315500D02*
X302000D01*
X308000Y309500D01*
X290500Y337000D02*
X298000D01*
X282000Y328500D02*
X290500Y337000D01*
X287000Y351000D02*
X298000D01*
X285000Y349000D02*
X287000Y351000D01*
X285500Y364500D02*
X298000D01*
X282000Y361000D02*
X285500Y364500D01*
X270307Y306953D02*
X272563Y304697D01*
X269063Y308000D02*
X270110Y306953D01*
X266828Y308000D02*
X269063D01*
X272563Y304500D02*
Y304697D01*
X270110Y306953D02*
X270307D01*
X261000Y326000D02*
Y330000D01*
X240500Y326000D02*
Y331000D01*
X260000D02*
X261000Y330000D01*
X240500Y331000D02*
X260000D01*
X236000Y335500D02*
Y349000D01*
Y335500D02*
X240500Y331000D01*
X266828Y308000D02*
X274328Y315500D01*
X242874Y308000D02*
X266828D01*
X241315Y306441D02*
X242874Y308000D01*
X241315Y306126D02*
Y306441D01*
X240543Y305354D02*
X241315Y306126D01*
X240543Y303780D02*
Y305354D01*
X282000Y327500D02*
Y328500D01*
X275500Y321000D02*
X282000Y327500D01*
X269000Y321000D02*
X275500D01*
X285000Y337500D02*
Y349000D01*
X275500Y328000D02*
X285000Y337500D01*
X267500Y328000D02*
X275500D01*
X266500Y327000D02*
X267500Y328000D01*
X266500Y319500D02*
X269000Y317000D01*
X266500Y319500D02*
Y327000D01*
X282000Y338500D02*
Y361000D01*
X273000Y329500D02*
X282000Y338500D01*
X265000Y328914D02*
X265586Y329500D01*
X273000D01*
X265000Y317000D02*
Y328914D01*
Y317000D02*
X269000Y313000D01*
X253339Y321161D02*
Y326220D01*
Y321161D02*
X254110Y320390D01*
X251000Y313586D02*
Y326220D01*
X216000Y280500D02*
Y319500D01*
X242354Y318000D02*
X243102Y318749D01*
Y326220D01*
X227325Y294325D02*
Y295154D01*
X226000Y296479D02*
X227325Y295154D01*
X226500Y293500D02*
X227325Y294325D01*
X226000Y296479D02*
Y313364D01*
X230636Y318000D01*
X242354D01*
X226500Y280500D02*
Y293500D01*
X245661Y318661D02*
Y326220D01*
X243500Y316500D02*
X245661Y318661D01*
X231257Y316500D02*
X243500D01*
X227500Y312743D02*
X231257Y316500D01*
X227500Y297100D02*
X231600Y293000D01*
X233500D01*
X227500Y297100D02*
Y312743D01*
X233500Y293000D02*
X236500Y290000D01*
Y280500D02*
Y290000D01*
X248220Y315721D02*
Y326220D01*
X247500Y315000D02*
X248220Y315721D01*
X231879Y315000D02*
X247500D01*
X229000Y297722D02*
Y312121D01*
X231879Y315000D01*
X232222Y294500D02*
X243500D01*
X229000Y297722D02*
X232222Y294500D01*
X246500Y280500D02*
Y291500D01*
X243500Y294500D02*
X246500Y291500D01*
X231500Y312500D02*
X231879D01*
X232379Y313000D02*
X250414D01*
X251000Y313586D01*
X230500Y311500D02*
X231500Y312500D01*
X231879D02*
X232379Y313000D01*
X230500Y298343D02*
X232843Y296000D01*
X230500Y298343D02*
Y311500D01*
X232843Y296000D02*
X255000D01*
X256500Y280500D02*
Y294500D01*
X255000Y296000D02*
X256500Y294500D01*
X253000Y311500D02*
X254110Y312610D01*
Y320390D01*
X233000Y311500D02*
X253000D01*
X232000Y298965D02*
Y310500D01*
X233000Y311500D01*
X233465Y297500D02*
X263500D01*
X232000Y298965D02*
X233465Y297500D01*
X263500D02*
X266500Y294500D01*
Y280500D02*
Y294500D01*
X253500Y309500D02*
X255898Y311898D01*
Y326220D01*
X233500Y299586D02*
Y308914D01*
X234086Y309500D01*
X253500D01*
X234086Y299000D02*
X274000D01*
X233500Y299586D02*
X234086Y299000D01*
X274000D02*
X276500Y296500D01*
Y280500D02*
Y296500D01*
X216000Y319500D02*
X222721Y326220D01*
X237984D01*
D15*
X272563Y304500D02*
D03*
X280437D02*
D03*
D29*
X318000Y337000D02*
D03*
Y324000D02*
D03*
Y351000D02*
D03*
Y281000D02*
D03*
Y309500D02*
D03*
Y294000D02*
D03*
Y364500D02*
D03*
D30*
X308000Y337000D02*
D03*
X298000D02*
D03*
X308000Y324000D02*
D03*
X298000D02*
D03*
X308000Y351000D02*
D03*
X298000D02*
D03*
X308000Y281000D02*
D03*
X298000D02*
D03*
X308000Y309500D02*
D03*
X298000D02*
D03*
X308000Y294000D02*
D03*
X298000D02*
D03*
X308000Y364500D02*
D03*
X298000D02*
D03*
X278500Y389500D02*
D03*
Y379500D02*
D03*
X265500Y389500D02*
D03*
Y379500D02*
D03*
X252000Y389500D02*
D03*
Y379500D02*
D03*
X239000Y389500D02*
D03*
Y379500D02*
D03*
D31*
X278500Y399500D02*
D03*
X265500D02*
D03*
X252000D02*
D03*
X239000D02*
D03*
D32*
X258457Y326220D02*
D03*
X261000Y326000D02*
D03*
X240500D02*
D03*
X269000Y325500D02*
D03*
Y321000D02*
D03*
Y317000D02*
D03*
Y313000D02*
D03*
X248220Y303780D02*
D03*
X255898D02*
D03*
X250780D02*
D03*
X253339D02*
D03*
X261016D02*
D03*
X240543D02*
D03*
X237984D02*
D03*
X243102D02*
D03*
X245661D02*
D03*
X216000Y349000D02*
D03*
X226500D02*
D03*
X236000D02*
D03*
X246500Y348500D02*
D03*
X256500Y349000D02*
D03*
X266500Y349500D02*
D03*
X276500Y280500D02*
D03*
X266500D02*
D03*
X256500D02*
D03*
X246500D02*
D03*
X236500D02*
D03*
X226500D02*
D03*
X216000D02*
D03*
D33*
X315000Y264000D02*
D03*
X208000D02*
D03*
Y401500D02*
D03*
X315500Y401000D02*
D03*
D34*
X261016Y303780D02*
D03*
X258457D02*
D03*
X255898D02*
D03*
X253339D02*
D03*
X250780D02*
D03*
X248220D02*
D03*
X245661D02*
D03*
X243102D02*
D03*
X240543D02*
D03*
X237984D02*
D03*
X261016Y326220D02*
D03*
X258457D02*
D03*
X255898D02*
D03*
X253339D02*
D03*
X250780D02*
D03*
X248220D02*
D03*
X245661D02*
D03*
X243102D02*
D03*
X240543D02*
D03*
X237984D02*
D03*
M02*
