G04*
G04 #@! TF.GenerationSoftware,Altium Limited,Altium Designer,23.0.1 (38)*
G04*
G04 Layer_Color=255*
%FSLAX25Y25*%
%MOIN*%
G70*
G04*
G04 #@! TF.SameCoordinates,7FA53B3A-F1D1-4194-8ECC-15494960791F*
G04*
G04*
G04 #@! TF.FilePolarity,Positive*
G04*
G01*
G75*
%ADD15R,0.05512X0.05906*%
%ADD29R,0.05906X0.05906*%
%ADD30C,0.05906*%
%ADD31R,0.05906X0.05906*%
G04:AMPARAMS|DCode=34|XSize=15.75mil|YSize=47.24mil|CornerRadius=1.97mil|HoleSize=0mil|Usage=FLASHONLY|Rotation=180.000|XOffset=0mil|YOffset=0mil|HoleType=Round|Shape=RoundedRectangle|*
%AMROUNDEDRECTD34*
21,1,0.01575,0.04331,0,0,180.0*
21,1,0.01181,0.04724,0,0,180.0*
1,1,0.00394,-0.00591,0.02165*
1,1,0.00394,0.00591,0.02165*
1,1,0.00394,0.00591,-0.02165*
1,1,0.00394,-0.00591,-0.02165*
%
%ADD34ROUNDEDRECTD34*%
D15*
X272563Y304500D02*
D03*
X280437D02*
D03*
D29*
X318000Y337000D02*
D03*
Y324000D02*
D03*
Y351000D02*
D03*
Y281000D02*
D03*
Y309500D02*
D03*
Y294000D02*
D03*
Y364500D02*
D03*
D30*
X308000Y337000D02*
D03*
X298000D02*
D03*
X308000Y324000D02*
D03*
X298000D02*
D03*
X308000Y351000D02*
D03*
X298000D02*
D03*
X308000Y281000D02*
D03*
X298000D02*
D03*
X308000Y309500D02*
D03*
X298000D02*
D03*
X308000Y294000D02*
D03*
X298000D02*
D03*
X308000Y364500D02*
D03*
X298000D02*
D03*
X278500Y389500D02*
D03*
Y379500D02*
D03*
X265500Y389500D02*
D03*
Y379500D02*
D03*
X252000Y389500D02*
D03*
Y379500D02*
D03*
X239000Y389500D02*
D03*
Y379500D02*
D03*
D31*
X278500Y399500D02*
D03*
X265500D02*
D03*
X252000D02*
D03*
X239000D02*
D03*
D34*
X261016Y303780D02*
D03*
X258457D02*
D03*
X255898D02*
D03*
X253339D02*
D03*
X250780D02*
D03*
X248220D02*
D03*
X245661D02*
D03*
X243102D02*
D03*
X240543D02*
D03*
X237984D02*
D03*
X261016Y326220D02*
D03*
X258457D02*
D03*
X255898D02*
D03*
X253339D02*
D03*
X250780D02*
D03*
X248220D02*
D03*
X245661D02*
D03*
X243102D02*
D03*
X240543D02*
D03*
X237984D02*
D03*
M02*
