G04*
G04 #@! TF.GenerationSoftware,Altium Limited,Altium Designer,23.0.1 (38)*
G04*
G04 Layer_Physical_Order=1*
G04 Layer_Color=255*
%FSLAX25Y25*%
%MOIN*%
G70*
G04*
G04 #@! TF.SameCoordinates,7FA53B3A-F1D1-4194-8ECC-15494960791F*
G04*
G04*
G04 #@! TF.FilePolarity,Positive*
G04*
G01*
G75*
%ADD10C,0.01000*%
%ADD15R,0.05512X0.05906*%
%ADD16R,0.05000X0.17323*%
%ADD17O,0.05000X0.17323*%
%ADD18R,0.05906X0.05512*%
%ADD28C,0.02500*%
%ADD29R,0.05906X0.05906*%
%ADD30C,0.05906*%
%ADD31R,0.05906X0.05906*%
%ADD32C,0.02000*%
%ADD33C,0.11811*%
G36*
X331000Y254000D02*
X199270D01*
X198744Y410646D01*
X199097Y411000D01*
X331000Y411000D01*
Y254000D01*
D02*
G37*
%LPC*%
G36*
X282453Y403453D02*
X279000D01*
Y400000D01*
X282453D01*
Y403453D01*
D02*
G37*
G36*
X269453D02*
X266000D01*
Y400000D01*
X269453D01*
Y403453D01*
D02*
G37*
G36*
X255953D02*
X252500D01*
Y400000D01*
X255953D01*
Y403453D01*
D02*
G37*
G36*
X242953D02*
X239500D01*
Y400000D01*
X242953D01*
Y403453D01*
D02*
G37*
G36*
X278000D02*
X274547D01*
Y400000D01*
X278000D01*
Y403453D01*
D02*
G37*
G36*
X265000D02*
X261547D01*
Y400000D01*
X265000D01*
Y403453D01*
D02*
G37*
G36*
X251500D02*
X248047D01*
Y400000D01*
X251500D01*
Y403453D01*
D02*
G37*
G36*
X238500D02*
X235047D01*
Y400000D01*
X238500D01*
Y403453D01*
D02*
G37*
G36*
X282453Y399000D02*
X279000D01*
Y395547D01*
X282453D01*
Y399000D01*
D02*
G37*
G36*
X278000D02*
X274547D01*
Y395547D01*
X278000D01*
Y399000D01*
D02*
G37*
G36*
X269453D02*
X266000D01*
Y395547D01*
X269453D01*
Y399000D01*
D02*
G37*
G36*
X265000D02*
X261547D01*
Y395547D01*
X265000D01*
Y399000D01*
D02*
G37*
G36*
X255953D02*
X252500D01*
Y395547D01*
X255953D01*
Y399000D01*
D02*
G37*
G36*
X251500D02*
X248047D01*
Y395547D01*
X251500D01*
Y399000D01*
D02*
G37*
G36*
X242953D02*
X239500D01*
Y395547D01*
X242953D01*
Y399000D01*
D02*
G37*
G36*
X238500D02*
X235047D01*
Y395547D01*
X238500D01*
Y399000D01*
D02*
G37*
G36*
X208631Y407905D02*
X207369D01*
X206132Y407659D01*
X204966Y407176D01*
X203917Y406475D01*
X203025Y405583D01*
X202324Y404534D01*
X201841Y403368D01*
X201594Y402131D01*
Y400869D01*
X201841Y399632D01*
X202324Y398466D01*
X203025Y397417D01*
X203917Y396525D01*
X204966Y395824D01*
X206132Y395341D01*
X207369Y395094D01*
X208631D01*
X209868Y395341D01*
X211034Y395824D01*
X212083Y396525D01*
X212976Y397417D01*
X213677Y398466D01*
X214159Y399632D01*
X214405Y400869D01*
Y402131D01*
X214159Y403368D01*
X213677Y404534D01*
X212976Y405583D01*
X212083Y406475D01*
X211034Y407176D01*
X209868Y407659D01*
X208631Y407905D01*
D02*
G37*
G36*
X316131Y407406D02*
X314869D01*
X313632Y407159D01*
X312466Y406676D01*
X311417Y405975D01*
X310525Y405083D01*
X309823Y404034D01*
X309341Y402868D01*
X309095Y401631D01*
Y400369D01*
X309341Y399132D01*
X309823Y397966D01*
X310525Y396917D01*
X311417Y396024D01*
X312466Y395323D01*
X313632Y394841D01*
X314869Y394595D01*
X316131D01*
X317368Y394841D01*
X318534Y395323D01*
X319583Y396024D01*
X320476Y396917D01*
X321177Y397966D01*
X321659Y399132D01*
X321905Y400369D01*
Y401631D01*
X321659Y402868D01*
X321177Y404034D01*
X320476Y405083D01*
X319583Y405975D01*
X318534Y406676D01*
X317368Y407159D01*
X316131Y407406D01*
D02*
G37*
G36*
X278955Y392953D02*
X278045D01*
X277167Y392718D01*
X276380Y392263D01*
X275737Y391620D01*
X275543Y391284D01*
X268457D01*
X268263Y391620D01*
X267620Y392263D01*
X266833Y392718D01*
X265955Y392953D01*
X265045D01*
X264167Y392718D01*
X263380Y392263D01*
X262737Y391620D01*
X262543Y391284D01*
X254957D01*
X254763Y391620D01*
X254120Y392263D01*
X253333Y392718D01*
X252455Y392953D01*
X251545D01*
X250667Y392718D01*
X249880Y392263D01*
X249237Y391620D01*
X249043Y391284D01*
X241957D01*
X241763Y391620D01*
X241120Y392263D01*
X240333Y392718D01*
X239455Y392953D01*
X238545D01*
X237667Y392718D01*
X236880Y392263D01*
X236237Y391620D01*
X236043Y391284D01*
X230500D01*
X229817Y391148D01*
X229238Y390762D01*
X229238Y390762D01*
X229047Y390570D01*
X228453D01*
X228262Y390762D01*
X227683Y391148D01*
X227000Y391284D01*
X223000D01*
X222317Y391148D01*
X221738Y390762D01*
X221738Y390762D01*
X221261Y390284D01*
X219953D01*
Y392130D01*
X213047D01*
Y385618D01*
X219953D01*
Y386716D01*
X222000D01*
X222683Y386852D01*
X223262Y387238D01*
X223739Y387716D01*
X226261D01*
X226453Y387524D01*
X226453Y387524D01*
X227032Y387137D01*
X227714Y387001D01*
X229785D01*
X230468Y387137D01*
X231047Y387524D01*
X231239Y387716D01*
X236043D01*
X236237Y387380D01*
X236880Y386737D01*
X237667Y386282D01*
X238545Y386047D01*
X239455D01*
X240333Y386282D01*
X241120Y386737D01*
X241763Y387380D01*
X241957Y387716D01*
X249043D01*
X249237Y387380D01*
X249880Y386737D01*
X250667Y386282D01*
X251545Y386047D01*
X252455D01*
X253333Y386282D01*
X254120Y386737D01*
X254763Y387380D01*
X254957Y387716D01*
X262543D01*
X262737Y387380D01*
X263380Y386737D01*
X264167Y386282D01*
X265045Y386047D01*
X265955D01*
X266833Y386282D01*
X267620Y386737D01*
X268263Y387380D01*
X268457Y387716D01*
X275543D01*
X275737Y387380D01*
X276380Y386737D01*
X277167Y386282D01*
X278045Y386047D01*
X278955D01*
X279833Y386282D01*
X280620Y386737D01*
X281263Y387380D01*
X281457Y387716D01*
X298761D01*
X306216Y380261D01*
Y367457D01*
X305880Y367263D01*
X305237Y366620D01*
X304783Y365833D01*
X304547Y364955D01*
Y364045D01*
X304783Y363167D01*
X305237Y362380D01*
X305880Y361737D01*
X306216Y361543D01*
Y353957D01*
X305880Y353763D01*
X305237Y353120D01*
X304783Y352333D01*
X304547Y351455D01*
Y350545D01*
X304783Y349667D01*
X305237Y348880D01*
X305880Y348237D01*
X306216Y348043D01*
Y339957D01*
X305880Y339763D01*
X305237Y339120D01*
X304783Y338333D01*
X304547Y337455D01*
Y336545D01*
X304783Y335667D01*
X305237Y334880D01*
X305880Y334237D01*
X306216Y334043D01*
Y326957D01*
X305880Y326763D01*
X305237Y326120D01*
X304783Y325333D01*
X304547Y324455D01*
Y323545D01*
X304783Y322667D01*
X305237Y321880D01*
X305880Y321237D01*
X306216Y321043D01*
Y312457D01*
X305880Y312263D01*
X305237Y311620D01*
X304783Y310833D01*
X304547Y309955D01*
Y309045D01*
X304783Y308167D01*
X305237Y307380D01*
X305880Y306737D01*
X306216Y306543D01*
Y296957D01*
X305880Y296763D01*
X305237Y296120D01*
X304783Y295333D01*
X304547Y294455D01*
Y293545D01*
X304783Y292667D01*
X305237Y291880D01*
X305880Y291237D01*
X306216Y291043D01*
Y283957D01*
X305880Y283763D01*
X305237Y283120D01*
X304783Y282333D01*
X304547Y281455D01*
Y280545D01*
X304783Y279667D01*
X305237Y278880D01*
X305880Y278237D01*
X306216Y278043D01*
Y268739D01*
X304761Y267284D01*
X302256D01*
Y268953D01*
X295744D01*
Y262047D01*
X302256D01*
Y263716D01*
X305500D01*
X306183Y263851D01*
X306762Y264238D01*
X308316Y265792D01*
X308776Y265546D01*
X308594Y264631D01*
Y263369D01*
X308841Y262132D01*
X309324Y260966D01*
X310024Y259917D01*
X310917Y259025D01*
X311966Y258324D01*
X313132Y257841D01*
X314369Y257594D01*
X315631D01*
X316868Y257841D01*
X318034Y258324D01*
X319083Y259025D01*
X319975Y259917D01*
X320676Y260966D01*
X321159Y262132D01*
X321406Y263369D01*
Y264631D01*
X321159Y265868D01*
X320676Y267034D01*
X319975Y268083D01*
X319083Y268975D01*
X318034Y269676D01*
X316868Y270159D01*
X315631Y270406D01*
X314369D01*
X313132Y270159D01*
X311966Y269676D01*
X310917Y268975D01*
X310284Y268343D01*
X309784Y268550D01*
Y278043D01*
X310120Y278237D01*
X310763Y278880D01*
X311217Y279667D01*
X311453Y280545D01*
Y281455D01*
X311217Y282333D01*
X310763Y283120D01*
X310120Y283763D01*
X309784Y283957D01*
Y291043D01*
X310120Y291237D01*
X310763Y291880D01*
X311217Y292667D01*
X311453Y293545D01*
Y294455D01*
X311217Y295333D01*
X310763Y296120D01*
X310120Y296763D01*
X309784Y296957D01*
Y306543D01*
X310120Y306737D01*
X310763Y307380D01*
X311217Y308167D01*
X311453Y309045D01*
Y309955D01*
X311217Y310833D01*
X310763Y311620D01*
X310120Y312263D01*
X309784Y312457D01*
Y321043D01*
X310120Y321237D01*
X310763Y321880D01*
X311217Y322667D01*
X311453Y323545D01*
Y324455D01*
X311217Y325333D01*
X310763Y326120D01*
X310120Y326763D01*
X309784Y326957D01*
Y334043D01*
X310120Y334237D01*
X310763Y334880D01*
X311217Y335667D01*
X311453Y336545D01*
Y337455D01*
X311217Y338333D01*
X310763Y339120D01*
X310120Y339763D01*
X309784Y339957D01*
Y348043D01*
X310120Y348237D01*
X310763Y348880D01*
X311217Y349667D01*
X311453Y350545D01*
Y351455D01*
X311217Y352333D01*
X310763Y353120D01*
X310120Y353763D01*
X309784Y353957D01*
Y361543D01*
X310120Y361737D01*
X310763Y362380D01*
X311217Y363167D01*
X311453Y364045D01*
Y364955D01*
X311217Y365833D01*
X310763Y366620D01*
X310120Y367263D01*
X309784Y367457D01*
Y381000D01*
X309784Y381000D01*
X309648Y381683D01*
X309262Y382262D01*
X309262Y382262D01*
X300762Y390762D01*
X300183Y391148D01*
X299500Y391284D01*
X281457D01*
X281263Y391620D01*
X280620Y392263D01*
X279833Y392718D01*
X278955Y392953D01*
D02*
G37*
G36*
X321953Y368453D02*
X318500D01*
Y365000D01*
X321953D01*
Y368453D01*
D02*
G37*
G36*
X317500D02*
X314047D01*
Y365000D01*
X317500D01*
Y368453D01*
D02*
G37*
G36*
X298455Y367953D02*
X297545D01*
X296667Y367718D01*
X295880Y367263D01*
X295237Y366620D01*
X294782Y365833D01*
X294547Y364955D01*
Y364045D01*
X294782Y363167D01*
X295237Y362380D01*
X295880Y361737D01*
X296667Y361282D01*
X297545Y361047D01*
X298455D01*
X299333Y361282D01*
X300120Y361737D01*
X300763Y362380D01*
X301218Y363167D01*
X301453Y364045D01*
Y364955D01*
X301218Y365833D01*
X300763Y366620D01*
X300120Y367263D01*
X299333Y367718D01*
X298455Y367953D01*
D02*
G37*
G36*
X321953Y364000D02*
X318500D01*
Y360547D01*
X321953D01*
Y364000D01*
D02*
G37*
G36*
X317500D02*
X314047D01*
Y360547D01*
X317500D01*
Y364000D01*
D02*
G37*
G36*
X321953Y354953D02*
X318500D01*
Y351500D01*
X321953D01*
Y354953D01*
D02*
G37*
G36*
X317500D02*
X314047D01*
Y351500D01*
X317500D01*
Y354953D01*
D02*
G37*
G36*
X227000Y358626D02*
Y349500D01*
X230030D01*
Y355161D01*
X229910Y356075D01*
X229557Y356926D01*
X228996Y357658D01*
X228265Y358219D01*
X227414Y358571D01*
X227000Y358626D01*
D02*
G37*
G36*
X226000D02*
X225586Y358571D01*
X224735Y358219D01*
X224004Y357658D01*
X223443Y356926D01*
X223090Y356075D01*
X222970Y355161D01*
Y349500D01*
X226000D01*
Y358626D01*
D02*
G37*
G36*
X298455Y354453D02*
X297545D01*
X296667Y354218D01*
X295880Y353763D01*
X295237Y353120D01*
X294782Y352333D01*
X294547Y351455D01*
Y350545D01*
X294782Y349667D01*
X295237Y348880D01*
X295880Y348237D01*
X296667Y347782D01*
X297545Y347547D01*
X298455D01*
X299333Y347782D01*
X300120Y348237D01*
X300763Y348880D01*
X301218Y349667D01*
X301453Y350545D01*
Y351455D01*
X301218Y352333D01*
X300763Y353120D01*
X300120Y353763D01*
X299333Y354218D01*
X298455Y354453D01*
D02*
G37*
G36*
X321953Y350500D02*
X318500D01*
Y347047D01*
X321953D01*
Y350500D01*
D02*
G37*
G36*
X317500D02*
X314047D01*
Y347047D01*
X317500D01*
Y350500D01*
D02*
G37*
G36*
X278955Y382953D02*
X278045D01*
X277167Y382717D01*
X276380Y382263D01*
X275737Y381620D01*
X275283Y380833D01*
X275047Y379955D01*
Y379045D01*
X275283Y378167D01*
X275737Y377380D01*
X276380Y376737D01*
X277167Y376283D01*
X277480Y376199D01*
Y367422D01*
X276279Y366221D01*
X276058Y365890D01*
X275980Y365500D01*
Y358922D01*
X275779Y358721D01*
X275558Y358390D01*
X275480Y358000D01*
Y357986D01*
X274987Y357782D01*
X274360Y357301D01*
X273880Y356674D01*
X273577Y355945D01*
X273474Y355161D01*
Y342839D01*
X273577Y342055D01*
X273880Y341326D01*
X274360Y340699D01*
X274987Y340218D01*
X275717Y339916D01*
X276500Y339813D01*
X277283Y339916D01*
X278013Y340218D01*
X278640Y340699D01*
X279120Y341326D01*
X279423Y342055D01*
X279526Y342839D01*
Y355161D01*
X279423Y355945D01*
X279120Y356674D01*
X278640Y357301D01*
X278013Y357782D01*
X277922Y358081D01*
X277942Y358110D01*
X278020Y358500D01*
Y365078D01*
X279221Y366279D01*
X279442Y366610D01*
X279520Y367000D01*
Y376199D01*
X279833Y376283D01*
X280620Y376737D01*
X281263Y377380D01*
X281717Y378167D01*
X281953Y379045D01*
Y379955D01*
X281717Y380833D01*
X281263Y381620D01*
X280620Y382263D01*
X279833Y382717D01*
X278955Y382953D01*
D02*
G37*
G36*
X265955D02*
X265045D01*
X264167Y382717D01*
X263380Y382263D01*
X262737Y381620D01*
X262282Y380833D01*
X262047Y379955D01*
Y379045D01*
X262282Y378167D01*
X262737Y377380D01*
X263380Y376737D01*
X264167Y376283D01*
X264480Y376199D01*
Y372009D01*
X263779Y371307D01*
X263558Y370976D01*
X263480Y370586D01*
Y364000D01*
X263558Y363610D01*
X263779Y363279D01*
X265480Y361578D01*
Y357986D01*
X264987Y357782D01*
X264360Y357301D01*
X263879Y356674D01*
X263577Y355945D01*
X263474Y355161D01*
Y342839D01*
X263577Y342055D01*
X263879Y341326D01*
X264360Y340699D01*
X264987Y340218D01*
X265717Y339916D01*
X266500Y339813D01*
X267283Y339916D01*
X268013Y340218D01*
X268640Y340699D01*
X269121Y341326D01*
X269423Y342055D01*
X269526Y342839D01*
Y355161D01*
X269423Y355945D01*
X269121Y356674D01*
X268640Y357301D01*
X268013Y357782D01*
X267520Y357986D01*
Y362000D01*
X267442Y362390D01*
X267221Y362721D01*
X265520Y364422D01*
Y370164D01*
X266221Y370865D01*
X266442Y371196D01*
X266520Y371586D01*
Y376199D01*
X266833Y376283D01*
X267620Y376737D01*
X268263Y377380D01*
X268718Y378167D01*
X268953Y379045D01*
Y379955D01*
X268718Y380833D01*
X268263Y381620D01*
X267620Y382263D01*
X266833Y382717D01*
X265955Y382953D01*
D02*
G37*
G36*
X252455D02*
X251545D01*
X250667Y382717D01*
X249880Y382263D01*
X249237Y381620D01*
X248782Y380833D01*
X248547Y379955D01*
Y379045D01*
X248782Y378167D01*
X249237Y377380D01*
X249880Y376737D01*
X250667Y376283D01*
X250980Y376199D01*
Y368500D01*
X251058Y368110D01*
X251279Y367779D01*
X255480Y363578D01*
Y357986D01*
X254987Y357782D01*
X254360Y357301D01*
X253879Y356674D01*
X253577Y355945D01*
X253474Y355161D01*
Y342839D01*
X253577Y342055D01*
X253879Y341326D01*
X254360Y340699D01*
X254987Y340218D01*
X255717Y339916D01*
X256500Y339813D01*
X257283Y339916D01*
X258013Y340218D01*
X258640Y340699D01*
X259120Y341326D01*
X259423Y342055D01*
X259526Y342839D01*
Y355161D01*
X259423Y355945D01*
X259120Y356674D01*
X258640Y357301D01*
X258013Y357782D01*
X257520Y357986D01*
Y364000D01*
X257442Y364390D01*
X257221Y364721D01*
X253020Y368922D01*
Y376199D01*
X253333Y376283D01*
X254120Y376737D01*
X254763Y377380D01*
X255218Y378167D01*
X255453Y379045D01*
Y379955D01*
X255218Y380833D01*
X254763Y381620D01*
X254120Y382263D01*
X253333Y382717D01*
X252455Y382953D01*
D02*
G37*
G36*
X239455D02*
X238545D01*
X237667Y382717D01*
X236880Y382263D01*
X236237Y381620D01*
X235783Y380833D01*
X235547Y379955D01*
Y379045D01*
X235783Y378167D01*
X236237Y377380D01*
X236880Y376737D01*
X237667Y376283D01*
X237980Y376199D01*
Y372500D01*
X238058Y372110D01*
X238279Y371779D01*
X245480Y364578D01*
Y357986D01*
X244987Y357782D01*
X244360Y357301D01*
X243880Y356674D01*
X243577Y355945D01*
X243474Y355161D01*
Y342839D01*
X243577Y342055D01*
X243880Y341326D01*
X244360Y340699D01*
X244987Y340218D01*
X245717Y339916D01*
X246500Y339813D01*
X247283Y339916D01*
X248013Y340218D01*
X248640Y340699D01*
X249120Y341326D01*
X249423Y342055D01*
X249526Y342839D01*
Y355161D01*
X249423Y355945D01*
X249120Y356674D01*
X248640Y357301D01*
X248013Y357782D01*
X247520Y357986D01*
Y365000D01*
X247442Y365390D01*
X247221Y365721D01*
X240020Y372922D01*
Y376199D01*
X240333Y376283D01*
X241120Y376737D01*
X241763Y377380D01*
X242217Y378167D01*
X242453Y379045D01*
Y379955D01*
X242217Y380833D01*
X241763Y381620D01*
X241120Y382263D01*
X240333Y382717D01*
X239455Y382953D01*
D02*
G37*
G36*
X236500Y358187D02*
X235717Y358084D01*
X234987Y357782D01*
X234360Y357301D01*
X233879Y356674D01*
X233577Y355945D01*
X233474Y355161D01*
Y342839D01*
X233577Y342055D01*
X233879Y341326D01*
X234360Y340699D01*
X234987Y340218D01*
X235717Y339916D01*
X236500Y339813D01*
X237283Y339916D01*
X238013Y340218D01*
X238640Y340699D01*
X239121Y341326D01*
X239423Y342055D01*
X239526Y342839D01*
Y355161D01*
X239423Y355945D01*
X239121Y356674D01*
X238640Y357301D01*
X238013Y357782D01*
X237283Y358084D01*
X236500Y358187D01*
D02*
G37*
G36*
X219953Y384256D02*
X213047D01*
Y377744D01*
X215480D01*
Y357986D01*
X214987Y357782D01*
X214360Y357301D01*
X213879Y356674D01*
X213577Y355945D01*
X213474Y355161D01*
Y342839D01*
X213577Y342055D01*
X213879Y341326D01*
X214360Y340699D01*
X214987Y340218D01*
X215717Y339916D01*
X216500Y339813D01*
X217283Y339916D01*
X218013Y340218D01*
X218640Y340699D01*
X219121Y341326D01*
X219423Y342055D01*
X219526Y342839D01*
Y355161D01*
X219423Y355945D01*
X219121Y356674D01*
X218640Y357301D01*
X218013Y357782D01*
X217520Y357986D01*
Y377744D01*
X219953D01*
Y384256D01*
D02*
G37*
G36*
X230030Y348500D02*
X227000D01*
Y339374D01*
X227414Y339429D01*
X228265Y339781D01*
X228996Y340342D01*
X229557Y341073D01*
X229910Y341925D01*
X230030Y342839D01*
Y348500D01*
D02*
G37*
G36*
X226000D02*
X222970D01*
Y342839D01*
X223090Y341925D01*
X223443Y341073D01*
X224004Y340342D01*
X224735Y339781D01*
X225586Y339429D01*
X226000Y339374D01*
Y348500D01*
D02*
G37*
G36*
X321953Y340953D02*
X318500D01*
Y337500D01*
X321953D01*
Y340953D01*
D02*
G37*
G36*
X317500D02*
X314047D01*
Y337500D01*
X317500D01*
Y340953D01*
D02*
G37*
G36*
X298455Y340453D02*
X297545D01*
X296667Y340217D01*
X295880Y339763D01*
X295237Y339120D01*
X294782Y338333D01*
X294547Y337455D01*
Y336545D01*
X294782Y335667D01*
X295237Y334880D01*
X295880Y334237D01*
X296667Y333783D01*
X297545Y333547D01*
X298455D01*
X299333Y333783D01*
X300120Y334237D01*
X300763Y334880D01*
X301218Y335667D01*
X301453Y336545D01*
Y337455D01*
X301218Y338333D01*
X300763Y339120D01*
X300120Y339763D01*
X299333Y340217D01*
X298455Y340453D01*
D02*
G37*
G36*
X321953Y336500D02*
X318500D01*
Y333047D01*
X321953D01*
Y336500D01*
D02*
G37*
G36*
X317500D02*
X314047D01*
Y333047D01*
X317500D01*
Y336500D01*
D02*
G37*
G36*
X257957Y328178D02*
X257324Y327916D01*
X256761Y327353D01*
X256499Y326720D01*
X257957D01*
Y328178D01*
D02*
G37*
G36*
X321953Y327953D02*
X318500D01*
Y324500D01*
X321953D01*
Y327953D01*
D02*
G37*
G36*
X258957Y328178D02*
Y326220D01*
Y324263D01*
X259590Y324525D01*
X259972Y324907D01*
X260150Y324728D01*
X260702Y324500D01*
X261298D01*
X261850Y324728D01*
X262272Y325150D01*
X262500Y325702D01*
Y326298D01*
X262272Y326850D01*
X261850Y327272D01*
X261298Y327500D01*
X260702D01*
X260181Y327284D01*
X260152Y327353D01*
X259590Y327916D01*
X258957Y328178D01*
D02*
G37*
G36*
X240798Y327500D02*
X240202D01*
X239650Y327272D01*
X239228Y326850D01*
X239000Y326298D01*
Y325702D01*
X239228Y325150D01*
X239650Y324728D01*
X240202Y324500D01*
X240798D01*
X241350Y324728D01*
X241772Y325150D01*
X242000Y325702D01*
Y326298D01*
X241772Y326850D01*
X241350Y327272D01*
X240798Y327500D01*
D02*
G37*
G36*
X317500Y327953D02*
X314047D01*
Y324500D01*
X317500D01*
Y327953D01*
D02*
G37*
G36*
X257957Y325721D02*
X256499D01*
X256761Y325088D01*
X257324Y324525D01*
X257957Y324263D01*
Y325721D01*
D02*
G37*
G36*
X298455Y327453D02*
X297545D01*
X296667Y327218D01*
X295880Y326763D01*
X295237Y326120D01*
X294890Y325520D01*
X289500D01*
X289110Y325442D01*
X288779Y325221D01*
X287578Y324020D01*
X283922D01*
X281721Y326221D01*
X281390Y326442D01*
X281000Y326520D01*
X270102D01*
X269850Y326772D01*
X269298Y327000D01*
X268702D01*
X268150Y326772D01*
X267728Y326350D01*
X267540Y325896D01*
X267279Y325721D01*
X265779Y324221D01*
X265558Y323890D01*
X265480Y323500D01*
Y322922D01*
X264578Y322020D01*
X252000D01*
X251610Y321942D01*
X251279Y321721D01*
X247499Y317941D01*
X247278Y317611D01*
X247201Y317220D01*
Y305068D01*
X246718Y304849D01*
X246614Y304948D01*
X246511Y305051D01*
X245960Y305279D01*
X245363D01*
X244812Y305051D01*
X244708Y304948D01*
X244382Y304637D01*
X244055Y304948D01*
X243952Y305051D01*
X243401Y305279D01*
X242804D01*
X242253Y305051D01*
X242149Y304948D01*
X241823Y304637D01*
X241496Y304948D01*
X241393Y305051D01*
X240842Y305279D01*
X240245D01*
X239694Y305051D01*
X239590Y304948D01*
X239264Y304637D01*
X238937Y304948D01*
X238834Y305051D01*
X238283Y305279D01*
X237686D01*
X237135Y305051D01*
X236713Y304629D01*
X236484Y304078D01*
Y303481D01*
X236713Y302930D01*
X236965Y302678D01*
Y296516D01*
X237042Y296126D01*
X237263Y295795D01*
X238779Y294279D01*
X239110Y294058D01*
X239500Y293980D01*
X278578D01*
X283980Y288578D01*
Y283500D01*
X284058Y283110D01*
X284279Y282779D01*
X286779Y280279D01*
X287110Y280058D01*
X287500Y279980D01*
X294699D01*
X294782Y279667D01*
X295237Y278880D01*
X295880Y278237D01*
X296667Y277783D01*
X297545Y277547D01*
X298455D01*
X299333Y277783D01*
X300120Y278237D01*
X300763Y278880D01*
X301218Y279667D01*
X301453Y280545D01*
Y281455D01*
X301218Y282333D01*
X300763Y283120D01*
X300120Y283763D01*
X299333Y284218D01*
X298455Y284453D01*
X297545D01*
X296667Y284218D01*
X295880Y283763D01*
X295237Y283120D01*
X294782Y282333D01*
X294699Y282020D01*
X287922D01*
X286020Y283922D01*
Y289000D01*
X285942Y289390D01*
X285721Y289721D01*
X279961Y295480D01*
X280169Y295980D01*
X281078D01*
X284779Y292279D01*
X285110Y292058D01*
X285500Y291980D01*
X290000D01*
X290390Y292058D01*
X290721Y292279D01*
X291922Y293480D01*
X294565D01*
X294782Y292667D01*
X295237Y291880D01*
X295880Y291237D01*
X296667Y290782D01*
X297545Y290547D01*
X298455D01*
X299333Y290782D01*
X300120Y291237D01*
X300763Y291880D01*
X301218Y292667D01*
X301453Y293545D01*
Y294455D01*
X301218Y295333D01*
X300763Y296120D01*
X300120Y296763D01*
X299333Y297217D01*
X298455Y297453D01*
X297545D01*
X296667Y297217D01*
X295880Y296763D01*
X295237Y296120D01*
X294890Y295520D01*
X291500D01*
X291110Y295442D01*
X290779Y295221D01*
X289578Y294020D01*
X285922D01*
X282462Y297480D01*
X282669Y297980D01*
X285000D01*
X285390Y298058D01*
X285721Y298279D01*
X286721Y299279D01*
X286942Y299610D01*
X287020Y300000D01*
Y306078D01*
X289422Y308480D01*
X294699D01*
X294782Y308167D01*
X295237Y307380D01*
X295880Y306737D01*
X296667Y306282D01*
X297545Y306047D01*
X298455D01*
X299333Y306282D01*
X300120Y306737D01*
X300763Y307380D01*
X301218Y308167D01*
X301453Y309045D01*
Y309955D01*
X301218Y310833D01*
X300763Y311620D01*
X300120Y312263D01*
X299333Y312718D01*
X298455Y312953D01*
X297545D01*
X296667Y312718D01*
X295880Y312263D01*
X295237Y311620D01*
X294782Y310833D01*
X294699Y310520D01*
X289000D01*
X288610Y310442D01*
X288279Y310221D01*
X285279Y307221D01*
X285058Y306890D01*
X284980Y306500D01*
Y300422D01*
X284578Y300020D01*
X246922D01*
X246681Y300261D01*
Y302491D01*
X247164Y302710D01*
X247268Y302611D01*
X247371Y302508D01*
X247922Y302279D01*
X248519D01*
X249070Y302508D01*
X249173Y302611D01*
X249500Y302922D01*
X249827Y302611D01*
X249930Y302508D01*
X250481Y302279D01*
X251078D01*
X251629Y302508D01*
X251732Y302611D01*
X252059Y302922D01*
X252386Y302611D01*
X252489Y302508D01*
X253040Y302279D01*
X253637D01*
X254188Y302508D01*
X254292Y302611D01*
X254618Y302922D01*
X254945Y302611D01*
X255048Y302508D01*
X255599Y302279D01*
X256196D01*
X256747Y302508D01*
X257169Y302930D01*
X257398Y303481D01*
Y304078D01*
X257169Y304629D01*
X256917Y304881D01*
Y310475D01*
X260422Y313980D01*
X264578D01*
X266279Y312279D01*
X266610Y312058D01*
X267000Y311980D01*
X267898D01*
X268150Y311728D01*
X268702Y311500D01*
X269298D01*
X269850Y311728D01*
X270272Y312150D01*
X270500Y312702D01*
Y313298D01*
X270272Y313850D01*
X269850Y314272D01*
X269298Y314500D01*
X268702D01*
X268150Y314272D01*
X267898Y314020D01*
X267422D01*
X265962Y315480D01*
X266169Y315980D01*
X267898D01*
X268150Y315728D01*
X268702Y315500D01*
X269298D01*
X269850Y315728D01*
X270272Y316150D01*
X270500Y316702D01*
Y317298D01*
X270272Y317850D01*
X269850Y318272D01*
X269298Y318500D01*
X268702D01*
X268150Y318272D01*
X268119Y318240D01*
X267924Y318275D01*
X267756Y318814D01*
X268518Y319576D01*
X268702Y319500D01*
X269298D01*
X269850Y319728D01*
X270272Y320150D01*
X270500Y320702D01*
Y321298D01*
X270272Y321850D01*
X269850Y322272D01*
X269298Y322500D01*
X268702D01*
X268150Y322272D01*
X267943Y322064D01*
X267482Y322310D01*
X267520Y322500D01*
Y323078D01*
X268422Y323980D01*
X268500D01*
X268668Y324014D01*
X268702Y324000D01*
X269298D01*
X269850Y324228D01*
X270102Y324480D01*
X280578D01*
X282779Y322279D01*
X283110Y322058D01*
X283500Y321980D01*
X288000D01*
X288390Y322058D01*
X288721Y322279D01*
X289922Y323480D01*
X294565D01*
X294782Y322667D01*
X295237Y321880D01*
X295880Y321237D01*
X296667Y320782D01*
X297545Y320547D01*
X298455D01*
X299333Y320782D01*
X300120Y321237D01*
X300763Y321880D01*
X301218Y322667D01*
X301453Y323545D01*
Y324455D01*
X301218Y325333D01*
X300763Y326120D01*
X300120Y326763D01*
X299333Y327218D01*
X298455Y327453D01*
D02*
G37*
G36*
X321953Y323500D02*
X318500D01*
Y320047D01*
X321953D01*
Y323500D01*
D02*
G37*
G36*
X317500D02*
X314047D01*
Y320047D01*
X317500D01*
Y323500D01*
D02*
G37*
G36*
X321953Y313453D02*
X318500D01*
Y310000D01*
X321953D01*
Y313453D01*
D02*
G37*
G36*
X317500D02*
X314047D01*
Y310000D01*
X317500D01*
Y313453D01*
D02*
G37*
G36*
X321953Y309000D02*
X318500D01*
Y305547D01*
X321953D01*
Y309000D01*
D02*
G37*
G36*
X317500D02*
X314047D01*
Y305547D01*
X317500D01*
Y309000D01*
D02*
G37*
G36*
X261516Y305737D02*
Y304279D01*
X262973D01*
X262711Y304912D01*
X262149Y305475D01*
X261516Y305737D01*
D02*
G37*
G36*
X260516D02*
X259883Y305475D01*
X259320Y304912D01*
X259058Y304279D01*
X260516D01*
Y305737D01*
D02*
G37*
G36*
X262973Y303279D02*
X261516D01*
Y301822D01*
X262149Y302084D01*
X262711Y302647D01*
X262973Y303279D01*
D02*
G37*
G36*
X260516D02*
X259058D01*
X259320Y302647D01*
X259883Y302084D01*
X260516Y301822D01*
Y303279D01*
D02*
G37*
G36*
X321953Y297953D02*
X318500D01*
Y294500D01*
X321953D01*
Y297953D01*
D02*
G37*
G36*
X317500D02*
X314047D01*
Y294500D01*
X317500D01*
Y297953D01*
D02*
G37*
G36*
X321953Y293500D02*
X318500D01*
Y290047D01*
X321953D01*
Y293500D01*
D02*
G37*
G36*
X317500D02*
X314047D01*
Y290047D01*
X317500D01*
Y293500D01*
D02*
G37*
G36*
X321953Y284953D02*
X318500D01*
Y281500D01*
X321953D01*
Y284953D01*
D02*
G37*
G36*
X317500D02*
X314047D01*
Y281500D01*
X317500D01*
Y284953D01*
D02*
G37*
G36*
X321953Y280500D02*
X318500D01*
Y277047D01*
X321953D01*
Y280500D01*
D02*
G37*
G36*
X317500D02*
X314047D01*
Y277047D01*
X317500D01*
Y280500D01*
D02*
G37*
G36*
X219500Y289661D02*
X213500D01*
Y271339D01*
X219500D01*
Y289661D01*
D02*
G37*
G36*
X276500Y289687D02*
X275717Y289584D01*
X274987Y289282D01*
X274360Y288801D01*
X273880Y288174D01*
X273577Y287445D01*
X273474Y286661D01*
Y274339D01*
X273577Y273555D01*
X273880Y272826D01*
X274360Y272199D01*
X274987Y271718D01*
X275717Y271416D01*
X276500Y271313D01*
X277283Y271416D01*
X278013Y271718D01*
X278640Y272199D01*
X279120Y272826D01*
X279423Y273555D01*
X279526Y274339D01*
Y286661D01*
X279423Y287445D01*
X279120Y288174D01*
X278640Y288801D01*
X278013Y289282D01*
X277283Y289584D01*
X276500Y289687D01*
D02*
G37*
G36*
X266500D02*
X265717Y289584D01*
X264987Y289282D01*
X264360Y288801D01*
X263879Y288174D01*
X263577Y287445D01*
X263474Y286661D01*
Y274339D01*
X263577Y273555D01*
X263879Y272826D01*
X264360Y272199D01*
X264987Y271718D01*
X265717Y271416D01*
X266500Y271313D01*
X267283Y271416D01*
X268013Y271718D01*
X268640Y272199D01*
X269121Y272826D01*
X269423Y273555D01*
X269526Y274339D01*
Y286661D01*
X269423Y287445D01*
X269121Y288174D01*
X268640Y288801D01*
X268013Y289282D01*
X267283Y289584D01*
X266500Y289687D01*
D02*
G37*
G36*
X256500D02*
X255717Y289584D01*
X254987Y289282D01*
X254360Y288801D01*
X253879Y288174D01*
X253577Y287445D01*
X253474Y286661D01*
Y274339D01*
X253577Y273555D01*
X253879Y272826D01*
X254360Y272199D01*
X254987Y271718D01*
X255717Y271416D01*
X256500Y271313D01*
X257283Y271416D01*
X258013Y271718D01*
X258640Y272199D01*
X259120Y272826D01*
X259423Y273555D01*
X259526Y274339D01*
Y286661D01*
X259423Y287445D01*
X259120Y288174D01*
X258640Y288801D01*
X258013Y289282D01*
X257283Y289584D01*
X256500Y289687D01*
D02*
G37*
G36*
X246500D02*
X245717Y289584D01*
X244987Y289282D01*
X244360Y288801D01*
X243880Y288174D01*
X243577Y287445D01*
X243474Y286661D01*
Y274339D01*
X243577Y273555D01*
X243880Y272826D01*
X244360Y272199D01*
X244987Y271718D01*
X245717Y271416D01*
X246500Y271313D01*
X247283Y271416D01*
X248013Y271718D01*
X248640Y272199D01*
X249120Y272826D01*
X249423Y273555D01*
X249526Y274339D01*
Y286661D01*
X249423Y287445D01*
X249120Y288174D01*
X248640Y288801D01*
X248013Y289282D01*
X247283Y289584D01*
X246500Y289687D01*
D02*
G37*
G36*
X236500D02*
X235717Y289584D01*
X234987Y289282D01*
X234360Y288801D01*
X233879Y288174D01*
X233577Y287445D01*
X233474Y286661D01*
Y274339D01*
X233577Y273555D01*
X233879Y272826D01*
X234360Y272199D01*
X234987Y271718D01*
X235717Y271416D01*
X236500Y271313D01*
X237283Y271416D01*
X238013Y271718D01*
X238640Y272199D01*
X239121Y272826D01*
X239423Y273555D01*
X239526Y274339D01*
Y286661D01*
X239423Y287445D01*
X239121Y288174D01*
X238640Y288801D01*
X238013Y289282D01*
X237283Y289584D01*
X236500Y289687D01*
D02*
G37*
G36*
X226500D02*
X225717Y289584D01*
X224987Y289282D01*
X224360Y288801D01*
X223880Y288174D01*
X223577Y287445D01*
X223474Y286661D01*
Y274339D01*
X223577Y273555D01*
X223880Y272826D01*
X224360Y272199D01*
X224987Y271718D01*
X225717Y271416D01*
X226500Y271313D01*
X227283Y271416D01*
X228013Y271718D01*
X228640Y272199D01*
X229120Y272826D01*
X229423Y273555D01*
X229526Y274339D01*
Y286661D01*
X229423Y287445D01*
X229120Y288174D01*
X228640Y288801D01*
X228013Y289282D01*
X227283Y289584D01*
X226500Y289687D01*
D02*
G37*
G36*
X294882Y269453D02*
X291626D01*
Y266000D01*
X294882D01*
Y269453D01*
D02*
G37*
G36*
X290626D02*
X287370D01*
Y266000D01*
X290626D01*
Y269453D01*
D02*
G37*
G36*
X294882Y265000D02*
X291626D01*
Y261547D01*
X294882D01*
Y265000D01*
D02*
G37*
G36*
X290626D02*
X287370D01*
Y261547D01*
X290626D01*
Y265000D01*
D02*
G37*
G36*
X208631Y270406D02*
X207369D01*
X206132Y270159D01*
X204966Y269676D01*
X203917Y268975D01*
X203025Y268083D01*
X202324Y267034D01*
X201841Y265868D01*
X201594Y264631D01*
Y263369D01*
X201841Y262132D01*
X202324Y260966D01*
X203025Y259917D01*
X203917Y259025D01*
X204966Y258324D01*
X206132Y257841D01*
X207369Y257594D01*
X208631D01*
X209868Y257841D01*
X211034Y258324D01*
X212083Y259025D01*
X212976Y259917D01*
X213677Y260966D01*
X214159Y262132D01*
X214405Y263369D01*
Y264631D01*
X214159Y265868D01*
X213677Y267034D01*
X212976Y268083D01*
X212083Y268975D01*
X211034Y269676D01*
X209868Y270159D01*
X208631Y270406D01*
D02*
G37*
%LPD*%
D10*
X285000Y283500D02*
X287500Y281000D01*
X298000D01*
X285000Y283500D02*
Y289000D01*
X297500Y294500D02*
X298000Y294000D01*
X291500Y294500D02*
X297500D01*
X290000Y293000D02*
X291500Y294500D01*
X285500Y293000D02*
X290000D01*
X286000Y306500D02*
X289000Y309500D01*
X298000D01*
X297500Y324500D02*
X298000Y324000D01*
X289500Y324500D02*
X297500D01*
X288000Y323000D02*
X289500Y324500D01*
X283500Y323000D02*
X288000D01*
X216000Y349000D02*
X216500Y349500D01*
Y381000D01*
X264500Y364000D02*
Y370586D01*
X265500Y371586D02*
Y379500D01*
X264500Y370586D02*
X265500Y371586D01*
X264500Y364000D02*
X266500Y362000D01*
Y349500D02*
Y362000D01*
X276500Y349000D02*
Y358000D01*
X277000Y358500D01*
Y365500D01*
X278500Y367000D01*
Y379500D01*
X256500Y349000D02*
Y364000D01*
X252000Y368500D02*
X256500Y364000D01*
X252000Y368500D02*
Y379500D01*
X246500Y349000D02*
Y365000D01*
Y348500D02*
Y349000D01*
X239000Y372500D02*
X246500Y365000D01*
X239000Y372500D02*
Y379500D01*
X269000Y325500D02*
X281000D01*
X283500Y323000D01*
X268000Y325000D02*
X268500D01*
X266500Y323500D02*
X268000Y325000D01*
X266500Y322500D02*
Y323500D01*
X265000Y321000D02*
X266500Y322500D01*
X268500Y321000D02*
X269000D01*
X266500Y319000D02*
X268500Y321000D01*
X253500Y319000D02*
X266500D01*
X256000Y317000D02*
X269000D01*
X267000Y313000D02*
X269000D01*
X265000Y315000D02*
X267000Y313000D01*
X248220Y303780D02*
Y317220D01*
X252000Y321000D02*
X265000D01*
X248220Y317220D02*
X252000Y321000D01*
X260000Y315000D02*
X265000D01*
X255898Y303780D02*
Y310898D01*
X260000Y315000D01*
X253339Y303780D02*
Y314339D01*
X256000Y317000D01*
X250780Y316280D02*
X253500Y319000D01*
X250780Y303780D02*
Y316280D01*
X286000Y300000D02*
Y306500D01*
X285000Y299000D02*
X286000Y300000D01*
X246500Y299000D02*
X285000D01*
X245661Y299839D02*
X246500Y299000D01*
X245661Y299839D02*
Y303780D01*
X245000Y297000D02*
X281500D01*
X285500Y293000D01*
X243102Y298898D02*
X245000Y297000D01*
X243102Y298898D02*
Y303780D01*
X279000Y295000D02*
X285000Y289000D01*
X239500Y295000D02*
X279000D01*
X237984Y296516D02*
Y303780D01*
Y296516D02*
X239500Y295000D01*
D15*
X299000Y265500D02*
D03*
X291126D02*
D03*
D16*
X216500Y280500D02*
D03*
D17*
X226500D02*
D03*
X236500D02*
D03*
X246500D02*
D03*
X256500D02*
D03*
X266500D02*
D03*
X276500D02*
D03*
Y349000D02*
D03*
X266500D02*
D03*
X256500D02*
D03*
X246500D02*
D03*
X236500D02*
D03*
X226500D02*
D03*
X216500D02*
D03*
D18*
Y381000D02*
D03*
Y388874D02*
D03*
D28*
X229785Y388786D02*
X230500Y389500D01*
X219500Y388500D02*
X222000D01*
X223000Y389500D01*
X227000D01*
X227714Y388786D01*
X229785D01*
X305500Y265500D02*
X308000Y268000D01*
X299000Y265500D02*
X305500D01*
X299000D02*
X299500Y266000D01*
X308000Y268000D02*
Y281000D01*
Y364500D02*
Y381000D01*
Y351000D02*
Y364500D01*
Y337000D02*
Y351000D01*
Y324000D02*
Y337000D01*
Y309500D02*
Y324000D01*
Y294000D02*
Y309500D01*
Y281000D02*
Y294000D01*
X299500Y389500D02*
X308000Y381000D01*
X278500Y389500D02*
X299500D01*
X265500D02*
X278500D01*
X252000D02*
X265500D01*
X239000D02*
X252000D01*
X230500D02*
X239000D01*
D29*
X318000Y337000D02*
D03*
Y324000D02*
D03*
Y351000D02*
D03*
Y281000D02*
D03*
Y309500D02*
D03*
Y294000D02*
D03*
Y364500D02*
D03*
D30*
X308000Y337000D02*
D03*
X298000D02*
D03*
X308000Y324000D02*
D03*
X298000D02*
D03*
X308000Y351000D02*
D03*
X298000D02*
D03*
X308000Y281000D02*
D03*
X298000D02*
D03*
X308000Y309500D02*
D03*
X298000D02*
D03*
X308000Y294000D02*
D03*
X298000D02*
D03*
X308000Y364500D02*
D03*
X298000D02*
D03*
X278500Y389500D02*
D03*
Y379500D02*
D03*
X265500Y389500D02*
D03*
Y379500D02*
D03*
X252000Y389500D02*
D03*
Y379500D02*
D03*
X239000Y389500D02*
D03*
Y379500D02*
D03*
D31*
X278500Y399500D02*
D03*
X265500D02*
D03*
X252000D02*
D03*
X239000D02*
D03*
D32*
X258457Y326220D02*
D03*
X261000Y326000D02*
D03*
X240500D02*
D03*
X269000Y325500D02*
D03*
Y321000D02*
D03*
Y317000D02*
D03*
Y313000D02*
D03*
X248220Y303780D02*
D03*
X255898D02*
D03*
X250780D02*
D03*
X253339D02*
D03*
X261016D02*
D03*
X240543D02*
D03*
X237984D02*
D03*
X243102D02*
D03*
X245661D02*
D03*
X216000Y349000D02*
D03*
X226500D02*
D03*
X236000D02*
D03*
X246500Y348500D02*
D03*
X256500Y349000D02*
D03*
X266500Y349500D02*
D03*
X276500Y280500D02*
D03*
X266500D02*
D03*
X256500D02*
D03*
X246500D02*
D03*
X236500D02*
D03*
X226500D02*
D03*
X216000D02*
D03*
D33*
X315000Y264000D02*
D03*
X208000D02*
D03*
Y401500D02*
D03*
X315500Y401000D02*
D03*
M02*
